<svg xmlns="http://www.w3.org/2000/svg" xmlns:xlink="http://www.w3.org/1999/xlink" width="1414" zoomAndPan="magnify" viewBox="0 0 1060.5 374.999991" height="500" preserveAspectRatio="xMidYMid meet" version="1.0"><defs><clipPath id="de748ab986"><path d="M 12.289062 83.105469 L 1048.039062 83.105469 L 1048.039062 292 L 12.289062 292 Z M 12.289062 83.105469 " clip-rule="nonzero"/></clipPath></defs><g clip-path="url(#de748ab986)"><path fill="#baa291" d="M 1038.914062 143.136719 C 1038.5625 143.707031 1037.054688 144.171875 1035.5625 144.171875 C 1032.378906 144.171875 1019.757812 147.183594 1018.257812 148.296875 C 1013.335938 151.964844 997.53125 158.414062 996.355469 157.238281 C 996.082031 156.964844 997.285156 156 999.03125 155.09375 C 1006.035156 151.46875 1015.527344 140.488281 1024.828125 141.289062 C 1029.355469 141.675781 1031.730469 138.644531 1028.675781 136.375 C 1026.929688 135.074219 1026.285156 135.15625 1023.199219 137.070312 C 1021.273438 138.261719 1019.445312 138.984375 1019.136719 138.675781 C 1018.449219 137.984375 1026.496094 132.800781 1028.308594 132.769531 C 1031.269531 132.71875 1034.609375 128.5625 1039.542969 118.796875 C 1045.320312 107.359375 1045.601562 104.546875 1048.039062 85.722656 C 1027.628906 102.285156 1031.050781 97.34375 1024.929688 107.449219 C 1020.546875 114.679688 1016.730469 122.660156 1016.71875 124.613281 C 1016.6875 129.488281 1012.214844 138.777344 1007.675781 143.394531 C 1000.9375 150.246094 999.332031 149.777344 1003.417969 142.15625 C 1006.175781 137.011719 1006.5 135.738281 1005.386719 134.398438 C 1002.460938 130.867188 997.9375 134.800781 1000.152344 138.949219 C 1002.019531 142.445312 993.84375 156.972656 988.339844 159.941406 C 982.792969 162.933594 995.015625 153.328125 995.015625 140.113281 C 995.015625 131.609375 997.332031 127.828125 996.46875 126.429688 C 995.402344 124.699219 976.417969 143.390625 974.242188 148.3125 C 973.113281 150.871094 970.871094 154.363281 969.265625 156.070312 C 960.972656 164.878906 963.140625 174.863281 956.546875 180.617188 C 952.335938 184.292969 951.429688 183.339844 955.296875 179.296875 C 957.699219 176.789062 958.070312 175.816406 957.175781 174.394531 C 954.738281 170.519531 950.652344 172.027344 950.617188 176.816406 C 950.59375 180.195312 945.125 186.730469 938.300781 191.539062 C 930.371094 197.125 930.296875 196.183594 938.085938 188.761719 C 948.371094 178.960938 943.386719 178.441406 951.789062 165.433594 C 956.386719 158.316406 955.746094 155.714844 950.488281 160.148438 C 948.648438 161.695312 942.84375 165.015625 937.582031 167.527344 C 926.300781 172.914062 913.125 185.394531 907.734375 195.800781 C 903.8125 203.371094 901 206.863281 897.546875 208.4375 C 891.648438 211.128906 894.730469 206.558594 902.996094 200.355469 C 904.277344 199.394531 904.386719 198.714844 903.492188 197.253906 C 901.871094 194.609375 898.652344 194.886719 897.96875 197.730469 C 897.226562 200.828125 886.707031 211.417969 884.375 211.417969 C 883.371094 211.417969 882.300781 211.820312 881.996094 212.316406 C 881.222656 213.570312 874.472656 214.140625 871.417969 215.132812 C 868.367188 216.121094 873.761719 211.90625 881.398438 207.339844 C 889.871094 202.269531 892.320312 199.5625 898.308594 188.65625 C 900.964844 183.820312 903.691406 179.070312 904.367188 178.105469 C 906.234375 175.429688 904.703125 174.855469 900.933594 176.808594 C 894.738281 180.015625 887.425781 181.296875 876.300781 188.613281 C 871.9375 191.484375 867.867188 193.832031 867.257812 193.832031 C 865.664062 193.832031 858.382812 201.347656 856.597656 204.835938 C 849.085938 219.511719 830.960938 224.359375 843.523438 214.652344 C 849.589844 209.964844 850.414062 208.394531 847.894531 206.300781 C 845.925781 204.664062 842.144531 206.621094 842.144531 209.277344 C 842.144531 211.484375 836 217.25 831.960938 218.828125 C 819.382812 223.746094 818.074219 223.035156 826.789062 216.007812 C 838.929688 206.21875 841.015625 203.996094 846.726562 194.792969 C 853.960938 183.136719 854.085938 181.578125 847.519531 184.894531 C 841.914062 187.722656 832.191406 188.0625 825.367188 193.257812 C 822.949219 195.097656 817.253906 198.746094 812.707031 201.367188 C 806.699219 204.828125 794.148438 215.875 791.15625 220.03125 C 790.832031 220.339844 790.523438 220.664062 790.222656 220.996094 C 789.898438 221.320312 789.585938 221.65625 789.28125 222.003906 C 788.761719 221.941406 788.035156 222.082031 786.910156 222.597656 C 780.472656 225.535156 781.710938 222.394531 788.742188 217.945312 C 793.296875 215.066406 793.808594 211.148438 789.707031 210.566406 C 787.867188 210.304688 787.039062 211.003906 785.871094 213.804688 C 784.191406 217.832031 778.84375 222.796875 776.191406 222.796875 C 775.226562 222.796875 773.519531 223.425781 772.398438 224.195312 C 769.445312 226.21875 759.316406 227.433594 761.90625 225.453125 C 762.941406 224.664062 765.9375 223.394531 768.566406 222.632812 C 773.871094 221.09375 782.121094 213.808594 786.582031 206.730469 C 788.027344 204.433594 791.859375 200.511719 795.097656 198.007812 C 805.121094 190.261719 811.753906 177.03125 801.988281 184.265625 C 800.289062 185.519531 795.261719 187.21875 790.359375 188.191406 C 772.789062 191.675781 780.9375 193.660156 764.269531 201.679688 C 758.097656 204.644531 756.109375 206.296875 751.765625 212.054688 C 737.847656 230.507812 739.472656 228.539062 710.449219 230.300781 C 712.003906 228.910156 718.363281 222.894531 720.070312 222.839844 C 720.972656 222.8125 721.320312 221.671875 721.105469 219.441406 C 720.546875 213.664062 714.074219 214.722656 714.058594 220.59375 C 714.042969 226.242188 702.289062 231.585938 687.726562 232.570312 C 674.730469 233.449219 672.75 234.601562 672.75 233.46875 C 672.75 232.296875 682.574219 227.300781 686.695312 226.382812 C 714.808594 220.113281 717.835938 206.683594 730.214844 199.113281 C 735.640625 195.792969 747.785156 181.949219 746.152344 180.941406 C 744.898438 180.164062 736.25 182.449219 730.292969 182.449219 C 726.050781 182.449219 717.453125 185.914062 710.96875 190.234375 C 708.980469 191.558594 704.832031 193.453125 701.753906 194.449219 C 684.632812 199.96875 683.046875 223.050781 662.492188 232.789062 C 648.078125 239.621094 650.957031 235.210938 651.988281 235.210938 C 655.453125 235.210938 667.695312 224.066406 667.332031 221.246094 C 666.886719 217.753906 661.988281 218.449219 661.574219 222.0625 C 661.097656 226.210938 655.070312 228.84375 645.585938 236.289062 C 639.011719 241.445312 642.246094 233.859375 647.457031 231.066406 C 655.0625 226.988281 659.75 220.394531 666.035156 204.929688 C 671.394531 191.742188 671.441406 189.699219 666.277344 194.480469 C 654.859375 205.050781 655.023438 201.214844 646.160156 208.160156 C 643.457031 210.28125 639.078125 213.273438 636.425781 214.8125 C 631.347656 217.761719 624.757812 224.652344 622.859375 229.003906 C 618.996094 237.851562 607.726562 248.4375 603.570312 247.117188 C 600.035156 245.992188 564.816406 253.890625 536.980469 262.054688 C 529.847656 264.144531 529.769531 264.148438 522.003906 262.160156 C 445.234375 242.523438 449.367188 244.085938 443.921875 232.625 C 438.847656 221.945312 435.765625 218.214844 428.285156 213.6875 C 424.316406 211.285156 420.03125 208.125 418.757812 206.660156 C 415.765625 203.210938 410.085938 201.527344 400.308594 196.699219 C 389.738281 191.480469 392.761719 193.054688 402.054688 213.355469 C 405.210938 220.25 409.171875 223.082031 419.171875 232.179688 C 423.148438 235.800781 426.558594 239.125 426.746094 239.570312 C 427.203125 240.648438 425.523438 240.613281 424.285156 239.519531 C 423.746094 239.042969 421.109375 237.847656 418.425781 236.859375 C 411.535156 234.320312 403.160156 226.582031 403.160156 222.753906 C 403.160156 219.265625 400.507812 217.3125 397.765625 218.78125 C 395.015625 220.257812 395.546875 223.625 398.851562 225.65625 C 402.144531 227.679688 411.425781 235.703125 411.425781 236.523438 C 411.425781 237.113281 405.910156 235.925781 402.644531 234.628906 C 396.304688 232.117188 387.457031 221.71875 380.496094 208.59375 C 375.453125 199.097656 371.765625 195.847656 360.910156 191.339844 C 343.191406 183.984375 347.390625 180.449219 332.929688 180.335938 C 319.585938 180.230469 310.265625 174.027344 325.019531 188.753906 C 349.273438 212.960938 357.40625 219.269531 368.464844 222.449219 C 396.378906 230.46875 397.414062 236.804688 388.007812 234.269531 C 377.265625 231.371094 370.691406 233.984375 358.386719 227.871094 C 350.585938 224 348.222656 221.941406 348.941406 219.664062 C 350.1875 215.730469 344.050781 214.265625 341.8125 217.960938 C 340.578125 220.003906 345.253906 225.023438 350.226562 226.996094 C 354.578125 228.722656 352.824219 230.140625 347.125 229.503906 C 327.199219 227.273438 322.679688 225.140625 317.53125 215.542969 C 315.214844 211.226562 312.59375 208.164062 308.535156 205.582031 C 304.097656 202.757812 300.378906 198.984375 296.429688 195.546875 C 280.453125 181.640625 274.777344 189.816406 263.324219 183.09375 C 252.109375 176.511719 256.847656 186.105469 269.902344 196.417969 C 272.910156 198.789062 277.367188 203.984375 280.363281 208.59375 C 285.757812 216.90625 289.242188 219.585938 298.125 222.246094 C 306.503906 224.757812 298.644531 226.984375 291.605469 223.46875 C 285.613281 220.476562 287.933594 223.675781 280 215.554688 C 273.324219 208.722656 272.570312 208.378906 270.9375 211.4375 C 269.417969 214.28125 270.019531 214.953125 277.433594 218.699219 C 285.574219 222.808594 287.144531 224.296875 282.3125 223.3125 C 276.226562 222.074219 271.746094 219.460938 270.015625 216.136719 C 267.019531 210.375 259.207031 203.523438 253.449219 201.609375 C 250.4375 200.605469 245.417969 197.609375 242.035156 194.789062 C 233.730469 187.867188 230.175781 188.484375 211.816406 182.769531 C 208.976562 181.886719 209.617188 183.496094 215.429688 191.84375 C 231.300781 214.632812 230.414062 208.25 246.675781 221.929688 L 241.640625 221.332031 C 233.152344 220.320312 222.261719 213.03125 222.003906 208.1875 C 221.757812 203.535156 215.242188 202.964844 214.347656 207.519531 C 214.050781 209.019531 226.214844 218.660156 228.402344 218.660156 C 228.941406 218.660156 229.957031 219.355469 230.667969 220.210938 C 232.332031 222.21875 231.867188 222.179688 223.878906 219.59375 C 217.386719 217.492188 212.074219 212.605469 212.074219 208.734375 C 212.074219 206.886719 203.878906 198.054688 200.574219 196.34375 C 198.921875 195.488281 194.625 192.113281 191.019531 188.84375 C 185.113281 183.484375 183.664062 182.707031 176.320312 180.992188 C 171.839844 179.945312 167.011719 178.503906 165.59375 177.796875 C 150.441406 170.222656 164.429688 183.8125 166.113281 190.792969 C 167.410156 196.171875 174.089844 203.515625 180.632812 206.761719 C 213.621094 223.117188 167.621094 210.664062 165.59375 197.660156 C 165.007812 193.90625 161.03125 192.925781 159.066406 196.046875 C 158.054688 197.65625 160.03125 201.070312 161.972656 201.070312 C 162.335938 201.070312 165.15625 203.253906 168.246094 205.925781 C 174.128906 211.015625 175.882812 213.988281 171.015625 210.632812 C 164.046875 205.828125 159.769531 208.121094 155.855469 194.839844 C 152.746094 184.292969 138.507812 171.003906 123.792969 164.917969 C 119.269531 163.046875 114.488281 160.808594 113.175781 159.945312 C 108.933594 157.160156 109.210938 159.648438 114.230469 169.339844 C 119.082031 178.714844 122.542969 187.632812 121.667969 188.511719 C 120.808594 189.371094 112.855469 179.851562 112.285156 177.277344 C 111.210938 172.4375 110.859375 171.960938 108.636719 172.292969 C 105.203125 172.804688 103.636719 176.160156 106.140625 177.644531 C 113.214844 181.828125 114.898438 186.386719 108.007812 182.710938 C 103.109375 180.09375 103.101562 180.082031 102.84375 174.222656 C 102.546875 167.457031 99.113281 159.476562 94.519531 154.875 C 92.84375 153.195312 90.429688 149.753906 89.148438 147.222656 C 81.503906 132.097656 78.066406 136.324219 71.78125 128.527344 C 68.148438 124.019531 67.46875 124.824219 67.46875 133.644531 C 67.46875 141.398438 69.058594 148.289062 72.273438 154.460938 C 76.308594 162.207031 72.75 161.085938 67.453125 152.945312 C 63.839844 147.390625 63.003906 145.164062 62.726562 140.351562 C 62.371094 134.15625 60.640625 131.273438 57.917969 132.320312 C 55.234375 133.351562 54.730469 136.21875 56.917969 137.996094 C 59.003906 139.6875 61.015625 147.277344 59.375 147.277344 C 55.921875 147.277344 49.007812 135.992188 46.367188 126.039062 C 37.800781 93.765625 28.089844 95.644531 18.371094 86.210938 C 16.632812 84.519531 14.648438 83.136719 13.964844 83.136719 C 12.503906 83.136719 12.277344 87.910156 13.695312 88.789062 C 14.230469 89.121094 14.964844 91.59375 15.328125 94.28125 C 18.085938 114.792969 30.320312 134.863281 40.066406 134.863281 C 41.613281 134.863281 44.234375 138.152344 45.261719 139.3125 C 43.078125 138.785156 39.460938 138.1875 36.898438 135.792969 C 31.242188 130.503906 27.585938 141.070312 37.363281 141.070312 C 47.578125 141.070312 68.097656 157.621094 64.789062 157.621094 C 63.363281 157.621094 61.839844 156.859375 60.542969 156.355469 C 58.925781 155.730469 57.464844 154.894531 55.996094 153.972656 C 55.402344 153.601562 54.804688 153.226562 54.210938 152.851562 C 51.433594 151.113281 48.695312 149.199219 45.777344 147.703125 C 43.097656 146.332031 40.179688 145.589844 37.207031 145.210938 C 22.867188 143.378906 18.285156 137.378906 22.882812 146.859375 C 29.28125 160.050781 33.5 163.832031 52.019531 172.960938 C 65.988281 179.847656 68.335938 180.292969 80.234375 178.34375 C 85.503906 177.476562 86.816406 177.621094 90.402344 179.457031 C 95.550781 182.085938 94.722656 183.253906 89.042969 181.378906 C 85.128906 180.082031 84.667969 180.128906 83.34375 181.945312 C 81.027344 185.117188 84.574219 188.148438 88.714844 186.535156 C 92.570312 185.035156 105.421875 186.050781 112.398438 188.402344 L 117.5625 190.144531 C 114.089844 190.582031 108.5 191.632812 100.460938 190.414062 C 88.699219 188.628906 87.140625 193.0625 74.527344 194.5625 C 64.796875 195.714844 72.546875 203.015625 90.234375 209.363281 C 104.273438 214.402344 106.3125 214.441406 115.734375 209.863281 C 130.945312 202.472656 135.445312 201.71875 144.363281 205.085938 C 147.832031 206.394531 151.539062 207.140625 152.882812 206.804688 C 154.433594 206.414062 155.261719 206.664062 155.261719 207.519531 C 155.257812 209.316406 142.28125 209.121094 138.4375 207.265625 C 135.160156 205.683594 135.261719 206.164062 131.046875 210.382812 C 135.609375 214.949219 134.699219 215.050781 140.386719 212.875 C 146.078125 210.699219 159.625 210.199219 161.519531 212.09375 C 162.421875 212.996094 160.734375 213.453125 154.597656 213.96875 C 136.644531 215.472656 115.582031 228.59375 128.277344 226.558594 C 132.851562 225.828125 140.398438 227.273438 145.453125 229.851562 C 151.132812 232.75 158.933594 234.0625 163.75 232.9375 C 166.183594 232.367188 171.675781 231.925781 175.949219 231.949219 C 184.285156 232 186.21875 231.226562 195.5625 224.101562 C 199.902344 220.792969 217.238281 219.054688 217.238281 221.929688 C 217.238281 222.40625 216.425781 222.796875 215.429688 222.800781 C 212.730469 222.804688 209.207031 226.363281 201.117188 228.472656 C 188.46875 231.769531 184.335938 240.726562 175.386719 244.980469 C 171.933594 246.621094 170.808594 249.671875 173.984375 248.777344 C 174.765625 248.558594 179.398438 248.441406 184.277344 248.519531 C 197.78125 248.734375 198.886719 245.585938 211.117188 245.566406 C 220.839844 245.554688 226.742188 243.59375 233.222656 238.230469 C 243.445312 229.769531 249.578125 226.933594 257.664062 226.933594 C 261.734375 226.933594 264 226.539062 264.46875 225.941406 C 264.730469 225.832031 264.992188 225.71875 265.246094 225.59375 C 265.867188 225.542969 266.492188 225.476562 267.117188 225.382812 C 267.253906 225.363281 267.355469 225.3125 267.4375 225.246094 C 269.308594 226.289062 267.304688 229.183594 263.1875 230.042969 C 260.09375 230.683594 257.277344 231.664062 256.9375 232.21875 C 256.59375 232.773438 255.402344 232.9375 254.289062 232.582031 C 249.878906 231.179688 247.492188 236.710938 251.4375 239.179688 C 255.984375 242.023438 255.476562 234.175781 264.773438 232.640625 C 267.316406 232.21875 269.867188 231.53125 270.433594 231.117188 C 273.824219 228.636719 289.542969 225.917969 289.542969 227.8125 C 289.542969 229.183594 278.21875 234.738281 272.558594 236.144531 C 256.117188 240.222656 250.867188 249.085938 244.351562 252.066406 C 242.058594 253.117188 241.09375 255.902344 243.023438 255.902344 C 243.566406 255.902344 248.664062 256.40625 254.347656 257.027344 C 263.183594 257.988281 265.769531 257.898438 272.203125 256.390625 C 291.207031 251.945312 293.597656 258.074219 309.53125 241.886719 C 316.660156 234.644531 323.289062 231.910156 332.894531 232.25 C 338.90625 232.464844 339.476562 233.523438 334.730469 235.65625 C 329.699219 237.921875 327.480469 239.925781 323.34375 241.398438 C 319.910156 242.621094 318.777344 244.992188 320.582031 247.171875 C 322.558594 249.554688 327.167969 248.664062 327.574219 245.820312 C 328.070312 242.3125 339.039062 236.28125 347.253906 235 C 353.761719 233.984375 367.035156 234.703125 366.984375 236.070312 C 366.9375 237.273438 353.144531 243.484375 350.464844 243.507812 C 339.480469 243.605469 323.703125 264.0625 318.417969 265.742188 C 314.195312 267.085938 316.328125 269.046875 322.746094 269.71875 C 352.339844 272.816406 347.332031 265.453125 362.082031 263.792969 C 371.816406 262.699219 378.191406 259.671875 385.53125 252.65625 C 396.152344 242.511719 406.371094 239.230469 418.835938 241.972656 C 422.148438 242.703125 421.792969 244.511719 418.335938 244.539062 C 407.476562 244.621094 397.097656 250.136719 401.601562 253.433594 C 403.671875 254.949219 406.261719 254.234375 406.261719 252.148438 C 406.261719 249.464844 430.683594 244.070312 437.765625 245.191406 C 448.507812 246.890625 447.167969 248.640625 435.183594 248.566406 C 426.554688 248.511719 421.402344 250.007812 414.515625 254.566406 C 407.808594 259.007812 396.644531 261.851562 390.421875 266.101562 C 388.054688 267.714844 384.839844 269.347656 383.277344 269.730469 C 379.84375 270.570312 379.574219 272.21875 382.761719 272.933594 C 389.925781 274.539062 410.613281 275.578125 414.5 274.527344 C 416.800781 273.90625 422.046875 273.164062 426.160156 272.875 C 438.214844 272.03125 439.679688 271.285156 453.5 258.96875 C 460.792969 252.472656 462.375 252.601562 498.707031 262.609375 C 515.433594 267.21875 520.898438 267.828125 514.199219 269.921875 C 510.507812 271.074219 499.371094 275.546875 481.167969 283.1875 C 472.160156 286.964844 472.679688 287.96875 483.640625 287.96875 C 490.585938 287.96875 497.304688 286.632812 503.609375 283.597656 C 508.226562 281.378906 513.121094 279.78125 517.296875 276.683594 C 521.375 273.667969 531.160156 272.195312 535.558594 273.933594 C 545.636719 277.921875 557.898438 283.125 562.855469 285.519531 C 571.238281 289.566406 583.132812 288.988281 589.601562 290.976562 C 593.84375 292.28125 596.554688 292.316406 596.136719 291.0625 C 595.511719 289.183594 558.539062 273.59375 545.855469 269.859375 C 541.230469 268.496094 544.507812 267.304688 572.558594 260.140625 C 603.878906 252.144531 604.585938 252.203125 617.597656 263.820312 C 632.75 277.34375 636.660156 271.621094 649.476562 274.300781 C 659.019531 276.296875 669.394531 272.234375 675.074219 270.972656 C 679.914062 269.902344 678.347656 268.535156 665.019531 262.195312 C 657.925781 258.820312 650.75 255.085938 649.074219 253.890625 C 635.796875 244.417969 614.90625 251.320312 619.378906 246.839844 C 623.507812 242.707031 650.917969 246.449219 656.910156 251.96875 C 659.808594 254.636719 663.722656 253.65625 663.253906 250.378906 C 663.011719 248.664062 661.976562 247.972656 658.804688 247.421875 C 640.890625 244.304688 638.175781 241.957031 651.101562 240.753906 C 660.613281 239.867188 665.515625 241.964844 675.273438 251.09375 C 685.089844 260.277344 687.757812 261.78125 696.679688 263.160156 C 717.929688 266.441406 708.753906 269.871094 730.816406 269.625 C 757.667969 269.324219 739.800781 266.515625 733.207031 256.980469 C 729.707031 251.921875 727.625 250.539062 717.472656 246.535156 C 705.867188 241.953125 703.542969 239.050781 698.792969 237.058594 C 695.480469 235.667969 709.878906 233.644531 715.617188 234.691406 C 721.941406 235.847656 734.152344 242.421875 736.015625 245.671875 C 738.476562 249.96875 742.472656 249.578125 742.472656 245.039062 C 742.472656 240.15625 739.738281 242.164062 733.691406 238.113281 C 732.269531 237.164062 729.832031 236.070312 728.269531 235.683594 C 723.3125 234.464844 725.195312 233.140625 731.882812 233.148438 C 742.515625 233.15625 752.699219 237.753906 761.0625 246.320312 C 766.007812 251.386719 772.070312 253.988281 779.910156 254.417969 C 790.875 255.011719 798.636719 258.5 805.210938 257.558594 C 807.628906 257.210938 812.28125 256.640625 815.550781 256.289062 C 821.695312 255.628906 823.625 253.570312 819.164062 252.425781 C 813.339844 250.929688 802.753906 238.894531 791.019531 236.832031 C 786.183594 235.984375 772.941406 230.132812 772.941406 228.851562 C 772.941406 224.65625 803.414062 232.746094 807.710938 238.078125 C 810.222656 241.195312 813.742188 240.425781 813.742188 236.761719 C 813.742188 233.289062 809.671875 233.773438 797.214844 228.671875 C 808.777344 225.886719 815.453125 225.078125 833.367188 238.339844 C 844.863281 246.847656 847.707031 248.019531 855.320312 247.382812 C 858.585938 247.113281 862.648438 247.300781 864.355469 247.804688 C 870.59375 249.648438 887.59375 248.726562 887.59375 246.546875 C 887.59375 246.074219 885.765625 244.378906 883.53125 242.777344 C 875.441406 236.976562 870.371094 231.878906 861.839844 229.015625 C 851.785156 225.640625 851.175781 222.796875 848.722656 222.796875 C 847.945312 222.796875 847.3125 222.375 847.3125 221.863281 C 847.3125 220.171875 859.5625 219.316406 861.421875 220.878906 C 863.117188 222.308594 867.9375 224.988281 876.230469 229.109375 C 879.945312 230.957031 883.164062 231.507812 892.242188 231.859375 C 921.734375 233.003906 912.535156 232.585938 931.234375 225.023438 C 934.136719 223.847656 935.121094 221.761719 932.769531 221.761719 C 932.050781 221.761719 929.84375 220.898438 927.863281 219.84375 C 916.140625 213.601562 888.824219 215.585938 898.628906 211.566406 C 901.453125 210.410156 919.363281 212.019531 925.398438 213.976562 C 926.792969 214.429688 928.164062 214.085938 929.230469 213.019531 C 932.246094 209.996094 928.671875 206.226562 924.773438 208.316406 C 922.535156 209.515625 913.417969 209.71875 913.417969 208.566406 C 913.417969 207.304688 926.398438 203.140625 930.332031 203.140625 C 932.640625 203.140625 937.132812 204.835938 942.734375 207.820312 C 953.683594 213.652344 972.699219 212.578125 982.554688 205.882812 C 986.363281 203.300781 990.046875 200.511719 993.78125 197.824219 C 994.703125 197.164062 996.84375 195.378906 995.445312 194.359375 C 993.234375 192.753906 989.355469 196.464844 979.480469 193.164062 C 965.21875 188.398438 933.597656 196.066406 950.355469 188.644531 C 954.949219 186.609375 962.460938 186.101562 975.90625 186.917969 C 978.40625 187.070312 979.070312 186.652344 979.335938 184.773438 C 979.734375 181.964844 977.246094 180.726562 974.035156 182.136719 C 971.410156 183.289062 968.507812 182.226562 966.613281 181.707031 C 969.117188 180.6875 971.515625 179.332031 978.289062 179.5 C 1000.175781 180.050781 999.671875 180.105469 1004.015625 176.609375 C 1011.628906 170.476562 1019.402344 171.246094 1025.734375 164.675781 C 1030.011719 160.238281 1042.53125 144.1875 1042.53125 143.140625 C 1042.53125 141.796875 1039.746094 141.792969 1038.914062 143.136719 Z M 1016.464844 133.570312 C 1017.964844 131.710938 1020.847656 118.410156 1024.273438 113.25 C 1025.632812 111.195312 1027.710938 107.886719 1028.882812 105.898438 C 1030.714844 102.792969 1041.472656 92.449219 1042.871094 92.449219 C 1043.558594 92.449219 1041.5625 98.875 1041.515625 103.3125 C 1041.476562 107.214844 1039.570312 109.855469 1034.636719 119.585938 C 1031.605469 125.5625 1027.769531 129.734375 1026.484375 128.445312 C 1026.277344 128.238281 1028.164062 123.894531 1030.675781 118.792969 C 1041.03125 97.765625 1030.222656 112.382812 1030.171875 113.3125 C 1030.027344 116.003906 1022.90625 128.972656 1019.691406 132.402344 C 1017.3125 134.9375 1014.558594 135.933594 1016.464844 133.570312 Z M 687.355469 210.863281 C 699.105469 194.410156 698.617188 200.992188 713.265625 192.136719 C 718.316406 189.085938 738.855469 183.511719 738.855469 185.191406 C 738.855469 186.34375 730.25 194.015625 725.300781 197.273438 C 715.503906 203.726562 710.738281 212.539062 701.085938 217.363281 C 682.988281 226.417969 688.324219 218.277344 710.707031 202.695312 C 718.046875 197.585938 720.8125 194.867188 718.664062 194.867188 C 717.765625 194.867188 694.035156 210.421875 692.890625 211.761719 C 683.617188 222.617188 679.441406 221.941406 687.355469 210.863281 Z M 372.898438 213.539062 C 344.878906 191.019531 333.769531 189.046875 349.191406 199.425781 C 359.089844 206.085938 372.179688 217.332031 375.914062 219.695312 C 377.265625 220.546875 378.367188 221.59375 378.371094 222.019531 C 378.371094 223.097656 377.734375 222.964844 370.109375 220.289062 C 349.644531 213.109375 353.300781 208.84375 336.304688 195.503906 C 328.894531 189.691406 327.527344 186.484375 325.761719 183.484375 C 335.976562 183.484375 347.546875 188.746094 354.371094 193.925781 C 355.65625 194.902344 359.105469 196.5625 362.03125 197.609375 C 368.390625 199.890625 371.371094 202.707031 377.816406 212.503906 C 384.09375 222.046875 383.613281 222.148438 372.898438 213.539062 Z M 29.234375 108.484375 C 26.496094 102.800781 24.59375 99.871094 24.34375 100.96875 C 23.878906 103.035156 31.988281 120.707031 35.726562 125.765625 C 39.847656 131.347656 41.34375 133.851562 34.691406 129.582031 C 28.628906 125.695312 15.96875 94.777344 19.226562 91.816406 C 21.285156 89.945312 34.132812 104.476562 37.621094 112.621094 C 46.382812 133.09375 39.433594 129.664062 29.234375 108.484375 Z M 55.261719 169.734375 C 54.304688 168.890625 50.636719 166.753906 47.113281 164.988281 C 38.65625 160.75 27.183594 149.722656 27.183594 145.832031 C 27.183594 143.351562 44.335938 149.152344 50.839844 153.828125 C 53.460938 155.71875 57.929688 158.09375 60.761719 159.109375 C 70.730469 162.683594 76.792969 166.214844 75.382812 167.625 C 73.90625 169.105469 63.09375 166.53125 56.53125 163.132812 C 42.796875 156.03125 41.441406 155.414062 40.855469 156 C 40.054688 156.804688 39.949219 156.730469 50.355469 162.710938 C 60.703125 168.660156 65.851562 170.648438 73.550781 171.671875 C 76.453125 172.058594 78.828125 172.777344 78.828125 173.273438 C 78.828125 176.222656 59.292969 173.289062 55.261719 169.734375 Z M 82.988281 154.84375 C 66.898438 121.746094 80.238281 162.371094 88.105469 169.503906 C 90.386719 171.566406 90.8125 173.140625 89.097656 173.140625 C 86.5 173.140625 76.761719 162.488281 76.761719 159.648438 C 76.761719 158.082031 75.347656 154.105469 73.621094 150.8125 C 70.046875 144.015625 70.566406 143.03125 71.082031 132.632812 L 77.347656 138.320312 C 88.832031 148.738281 81.253906 147.410156 91.15625 158.261719 C 94.824219 162.28125 96.609375 165.441406 98.371094 171.035156 C 102.902344 185.410156 92.554688 174.519531 82.988281 154.84375 Z M 115.371094 204.058594 C 105.265625 207.335938 100.234375 207.957031 97.382812 206.285156 C 96.507812 205.773438 92.328125 204.441406 88.085938 203.328125 C 77.738281 200.605469 72.058594 198.171875 75.78125 198.054688 C 77.230469 198.007812 78.902344 197.480469 79.5 196.882812 C 85.847656 190.523438 123.242188 194.304688 123.242188 195.808594 C 123.242188 197.070312 106.808594 198.542969 100.003906 197.890625 C 96.59375 197.566406 93.222656 197.5 92.515625 197.742188 C 86.140625 199.945312 105.820312 201.972656 116.289062 200.191406 C 129.230469 197.992188 128.828125 199.695312 115.371094 204.058594 Z M 155.691406 204.164062 C 154.394531 205.460938 146.363281 199.050781 143.027344 194.058594 C 137.394531 185.625 125.316406 171.980469 124.132812 172.710938 C 123.628906 173.023438 125.429688 176.066406 128.136719 179.46875 C 142.667969 197.75 143.933594 199.875 138.996094 197.71875 C 123.976562 191.15625 123.574219 181.949219 118.53125 171.980469 C 115.480469 165.949219 115.640625 165.3125 119.753906 167.148438 C 132.71875 172.929688 148.105469 186.660156 151.878906 195.820312 C 154.164062 201.371094 157.085938 202.761719 155.691406 204.164062 Z M 173.632812 226.847656 C 169.820312 226.910156 165.636719 227.328125 164.339844 227.785156 C 161.246094 228.863281 150.425781 227.53125 145.484375 225.464844 C 143.339844 224.566406 140.246094 223.832031 138.613281 223.832031 C 134.171875 223.832031 135.015625 221.921875 140.546875 219.464844 C 149.238281 215.601562 183.378906 213.605469 179.820312 217.167969 C 179.503906 217.488281 176.984375 217.976562 174.226562 218.253906 C 160.179688 219.671875 153.589844 224.871094 160.015625 223.488281 C 171.785156 220.957031 190.394531 219.433594 190.339844 221.003906 C 190.257812 223.46875 180.933594 226.734375 173.632812 226.847656 Z M 208.066406 213.488281 C 206.863281 213.488281 207.179688 212.042969 196.109375 204.550781 C 191.539062 201.460938 185.574219 197.257812 182.851562 195.21875 C 177.667969 191.332031 174.433594 191.328125 179.167969 195.210938 C 186.34375 201.101562 194.964844 207.640625 196.953125 208.695312 C 200.492188 210.578125 205.875 214.835938 205.875 215.75 C 205.875 218.027344 194.210938 213.242188 191.339844 209.773438 C 187.398438 205.015625 176.003906 205.636719 168.953125 190.625 C 166.25 184.867188 165.117188 181.058594 166.257812 181.558594 C 166.746094 181.773438 171.234375 183.546875 176.242188 185.503906 C 190.085938 190.914062 186.234375 192.273438 197.863281 200.875 C 205.6875 206.664062 211.207031 213.488281 208.066406 213.488281 Z M 233.28125 231.976562 C 223.179688 238.804688 224.296875 240.449219 205.359375 241.988281 C 192.539062 243.027344 195.800781 244.503906 182.710938 244.523438 C 194.53125 232.503906 191.894531 234.519531 207.425781 228.910156 C 212.539062 227.0625 217.1875 225.214844 217.753906 224.808594 C 219.726562 223.390625 227.332031 222.613281 228.039062 223.757812 C 228.414062 224.367188 228.046875 224.867188 227.222656 224.867188 C 225.007812 224.867188 225.28125 227.96875 222.929688 227.96875 C 220.722656 227.96875 200.710938 238.316406 200.710938 239.460938 C 200.710938 240.835938 200.828125 240.792969 212.53125 235.238281 C 226.558594 228.578125 225.28125 230.023438 233.644531 227.304688 C 240.921875 224.9375 240.765625 226.917969 233.28125 231.976562 Z M 268.664062 220.511719 C 263.53125 221.535156 229.765625 196.933594 229.023438 196.933594 C 225.285156 196.933594 245.046875 212.023438 256.800781 218.140625 C 261.171875 220.417969 264.75 222.859375 264.75 223.570312 C 264.75 223.667969 264.757812 223.765625 264.769531 223.855469 C 263.980469 223.980469 263.191406 224.105469 262.398438 224.230469 C 262.363281 224.234375 262.335938 224.246094 262.304688 224.253906 C 261.160156 223.859375 259.585938 223.449219 257.574219 223.042969 C 247.601562 221.042969 246.269531 216.898438 234.03125 209.039062 C 227.382812 204.769531 214.398438 187.539062 218.894531 188.953125 C 238.597656 195.144531 237.332031 197.910156 251.839844 205.339844 C 260.464844 209.753906 271.722656 219.90625 268.664062 220.511719 Z M 273.53125 250.363281 C 266.210938 252.660156 251.210938 253.042969 251.378906 250.929688 C 251.527344 249.0625 262.890625 242.175781 268.882812 240.316406 C 281.519531 236.402344 294.152344 228.382812 298.351562 229.4375 C 300.980469 230.097656 301.90625 232.082031 299.613281 232.140625 C 297.191406 232.207031 271.757812 245.296875 272.796875 245.941406 C 273.863281 246.597656 281.574219 243.410156 296.371094 236.195312 C 305.96875 231.515625 308.136719 232.109375 313.589844 232.109375 C 286.65625 256.195312 291.558594 244.707031 273.53125 250.363281 Z M 293.15625 205.371094 C 283.832031 197.375 278.0625 196.359375 303.226562 216.234375 C 317.609375 227.59375 317.292969 228.933594 298.320312 219.664062 C 278.730469 210.089844 287.132812 208.34375 271.671875 194.34375 L 265.269531 188.542969 C 276.644531 190.621094 272.921875 190.339844 283.25 192.878906 C 289.734375 194.472656 292.871094 199.816406 295.617188 201.492188 C 300.863281 204.691406 306.121094 208.15625 310.210938 212.722656 C 312.308594 215.066406 315.363281 218.355469 315.363281 221.699219 C 315.363281 222.871094 302.71875 213.574219 293.15625 205.371094 Z M 391.804688 241.863281 C 379.863281 248.277344 378.765625 255.78125 359.28125 258.488281 C 352.082031 259.488281 351.375 261.675781 346.042969 263.96875 C 342.441406 265.519531 328.53125 265.210938 324.582031 265.210938 C 339.355469 251.324219 340.984375 249.300781 350.800781 246.664062 C 357.328125 244.910156 365.167969 241.304688 368.160156 238.679688 C 370.339844 236.765625 379.621094 235.6875 382.074219 237.0625 C 383.773438 238.011719 383.527344 238.335938 379.886719 239.933594 C 365.449219 246.269531 342.230469 258.1875 342.734375 259 C 344.5 261.867188 383.707031 238.125 392.988281 239.550781 C 395.257812 239.902344 395.179688 240.050781 391.804688 241.863281 Z M 416.113281 218.59375 C 415.3125 219.890625 421.925781 223.277344 431.539062 233.054688 C 444.503906 246.25 431.382812 240.765625 416.835938 226.910156 C 395.699219 206.78125 397.914062 193.144531 419.171875 212.558594 C 428.8125 221.367188 431.664062 219.644531 437.871094 231.898438 C 447.304688 250.519531 419.078125 213.789062 416.113281 218.59375 Z M 441.378906 263.289062 C 441.378906 264.695312 430.683594 267.324219 425.730469 267.136719 C 414.636719 266.714844 425.542969 270.976562 391.285156 268.832031 C 403.539062 260.867188 405.914062 263.367188 415.007812 257.601562 C 423.3125 252.335938 427.34375 250.925781 436.308594 250.140625 C 446.304688 249.269531 446.523438 250.382812 437.019531 253.789062 C 431.636719 255.722656 418.230469 261.675781 416.675781 262.824219 C 416.4375 263 416.480469 263.378906 416.765625 263.667969 C 417.246094 264.148438 420.359375 263.082031 436.1875 257.035156 C 442.222656 254.730469 451.332031 252.765625 452.15625 253.589844 C 452.84375 254.28125 441.378906 262.136719 441.378906 263.289062 Z M 467.664062 251.621094 C 463.4375 251.015625 461.375 250.40625 460.488281 249.496094 C 459.183594 248.167969 466.226562 249.480469 467.664062 250.839844 C 468.285156 251.421875 468.285156 251.710938 467.664062 251.621094 Z M 511.617188 264.667969 C 501.960938 261.144531 485.660156 256.722656 486.234375 256.152344 C 486.960938 255.421875 514.308594 264.179688 520.402344 264.179688 C 523.363281 264.179688 524.640625 265.785156 522.371094 266.65625 C 520.011719 267.5625 519.054688 267.386719 511.617188 264.667969 Z M 489.789062 285.839844 C 489.394531 285.914062 487.9375 285.578125 488.375 284.867188 C 489.121094 283.660156 493.675781 283.542969 495.203125 284.503906 C 493.421875 285.03125 491.613281 285.488281 489.789062 285.839844 Z M 572.210938 284.800781 C 573.585938 283.425781 577.078125 284.789062 580.304688 285.714844 C 575.226562 285.820312 570.878906 286.136719 572.210938 284.800781 Z M 568.710938 281.425781 C 569.25 281.757812 569.054688 282.417969 568.277344 282.914062 C 566.367188 284.125 566.351562 284.125 561.699219 281.621094 C 556.492188 278.820312 543.859375 273.464844 540.78125 272.75 C 538.390625 272.195312 536.832031 270.652344 537.738281 269.738281 C 538.183594 269.296875 566.179688 279.855469 568.710938 281.425781 Z M 586.207031 254.167969 C 556.808594 260.472656 535.703125 268.140625 521.945312 271.984375 C 518.640625 272.910156 518.53125 273.863281 513.167969 275.5625 C 506.625 277.636719 500.605469 281.765625 495.984375 281.765625 C 491.730469 281.765625 492.757812 280.816406 500.054688 278.007812 C 574.605469 249.335938 634.792969 243.75 586.207031 254.167969 Z M 627.589844 250.421875 C 647.464844 251.15625 653.960938 263.144531 659.515625 263.144531 C 661.929688 263.144531 667.996094 266.566406 670.167969 267.707031 C 666.375 268.222656 660.425781 269.019531 656.222656 269.65625 C 645.164062 271.324219 627.335938 266.777344 619.957031 260.402344 C 617.421875 258.210938 614.203125 255.65625 612.804688 254.722656 C 609.242188 252.347656 611.179688 250.976562 615.207031 253.023438 C 619.761719 255.335938 628.902344 257.566406 632.464844 259.472656 C 640.75 263.90625 673.058594 270.746094 622.449219 253.25 C 615.035156 250.6875 616.277344 250.003906 627.589844 250.421875 Z M 638.011719 234.582031 C 633.472656 239.671875 631.449219 239.535156 626.011719 240.527344 C 633.726562 233.171875 650.570312 217.824219 648.582031 215.835938 C 647.675781 214.925781 628.261719 235.691406 623.726562 238.457031 C 617.398438 242.324219 617.574219 241.21875 625.070312 230.054688 C 629.980469 222.738281 632.027344 220.652344 637.347656 217.554688 C 646.285156 212.351562 653.066406 206.246094 654.394531 206.246094 C 657.015625 206.246094 667.582031 194.269531 660.632812 207.996094 C 650.347656 228.296875 649.554688 221.632812 638.011719 234.582031 Z M 705.160156 243.964844 C 718.425781 252.777344 719.5625 247.460938 731.546875 259.464844 C 736.496094 264.417969 737.765625 266.207031 736.261719 266.105469 C 730.46875 265.703125 714.597656 262.027344 708.382812 259.644531 C 699.117188 256.09375 694.019531 261.550781 679.40625 248.664062 C 676.027344 245.6875 671.753906 242.519531 669.910156 241.625 C 662.441406 238.011719 668.695312 236.984375 676.59375 240.53125 C 687.933594 245.621094 710.761719 256.9375 713.707031 256.9375 C 719.539062 256.9375 703.011719 250.1875 696.882812 246.3125 C 694.6875 244.925781 689.480469 242.453125 685.308594 240.824219 C 678.1875 238.035156 677.90625 237.808594 680.664062 237.0625 C 686.273438 235.539062 697.046875 238.574219 705.160156 243.964844 Z M 752.363281 216.210938 C 756.175781 210.875 768.625 201.074219 771.585938 201.074219 C 772.132812 201.074219 773.707031 199.851562 775.085938 198.363281 C 777.90625 195.304688 785.332031 191.761719 788.910156 191.761719 C 790.214844 191.761719 792.964844 191.058594 795.023438 190.195312 C 800.183594 188.039062 799.703125 189.582031 793.859375 193.960938 C 783.179688 201.964844 776.773438 215.089844 766.148438 220.296875 C 756.070312 225.234375 756.265625 223.117188 766.835938 212.722656 C 779.570312 200.203125 776.328125 200.203125 765.125 211.289062 C 760.597656 215.769531 755.273438 220.421875 753.296875 221.628906 C 746.753906 225.625 746.535156 224.363281 752.363281 216.210938 Z M 792.121094 239.933594 C 797.789062 241.582031 813.222656 251.046875 813.222656 252.875 C 813.222656 254.347656 800.949219 253.835938 795.148438 252.121094 C 792.308594 251.28125 786.175781 250.203125 781.523438 249.722656 C 765.265625 248.042969 766.679688 243.019531 754.382812 236.78125 C 742.925781 230.964844 748.429688 228.625 775.160156 241.316406 C 784.140625 245.582031 787.402344 246.433594 787.402344 244.523438 C 787.402344 243.953125 786.742188 243.488281 785.9375 243.488281 C 783.863281 243.488281 774.066406 237.664062 765.195312 234.203125 C 756.84375 230.945312 756.414062 230.328125 762.164062 229.871094 C 770.625 229.199219 778.480469 235.960938 792.121094 239.933594 Z M 804.890625 223.84375 C 797.996094 225.105469 798.75 224.464844 819.71875 211.191406 C 829.726562 204.859375 831.472656 203.484375 830.621094 202.632812 C 830.097656 202.105469 815.042969 210.410156 809.328125 214.378906 C 793.675781 225.25 791.859375 224.191406 790.652344 222.910156 C 790.949219 222.660156 791.203125 222.359375 791.472656 222.023438 C 791.578125 221.890625 791.6875 221.765625 791.792969 221.636719 C 791.839844 221.589844 791.886719 221.542969 791.933594 221.496094 C 795.726562 219.195312 806.375 207.714844 815.808594 202.640625 C 827.015625 196.609375 826.601562 194.46875 834.726562 192.230469 C 844.808594 189.457031 848.9375 186.054688 843.234375 193.246094 C 838.136719 199.667969 841.367188 199.125 832.363281 205.746094 C 828.730469 208.417969 825.527344 211.195312 825.25 211.921875 C 824.398438 214.152344 809.191406 223.058594 804.890625 223.84375 Z M 865.652344 233.5625 C 872.703125 236.191406 882.414062 244.523438 878.421875 244.523438 C 873.664062 244.523438 873.710938 245.722656 869.519531 244.394531 C 862.210938 242.074219 839.253906 243.378906 839.078125 236.503906 C 839.03125 234.582031 835.390625 235.78125 834.382812 234.152344 C 834.027344 233.570312 830.976562 231.703125 827.609375 230 C 812.734375 222.480469 820.410156 223.746094 840.597656 232.140625 C 848.550781 235.449219 856.335938 238.476562 857.898438 238.867188 C 861.34375 239.726562 861.824219 237.742188 858.414062 236.734375 C 856.46875 236.160156 841.335938 229.511719 831.816406 225.050781 C 829.640625 224.03125 830.535156 223.878906 837.527344 224.09375 C 850.832031 224.503906 850.929688 228.082031 865.652344 233.5625 Z M 868.09375 212.195312 C 867.089844 213.734375 862.804688 215.738281 862.804688 214.667969 C 862.804688 213.832031 877.167969 200.820312 884.496094 195.019531 C 887.851562 192.359375 890.078125 186.6875 865.386719 207.339844 C 853.894531 216.953125 849.316406 218.320312 855.832031 210.195312 C 870.410156 192.015625 867.761719 199.117188 878.8125 190.277344 C 882.875 187.027344 896.46875 180.648438 897.378906 181.5625 C 899.703125 183.886719 887.476562 198.902344 878.421875 204.847656 C 873.09375 208.347656 868.445312 211.65625 868.09375 212.195312 Z M 923.390625 220.886719 L 928.394531 223.125 C 917.355469 225.503906 909.019531 229.839844 900.503906 227.890625 C 894.160156 226.4375 880.695312 228.464844 872.101562 221.757812 L 869.519531 219.738281 C 880.503906 219.667969 909.367188 223.84375 901.023438 221.589844 C 894.613281 219.855469 892.136719 218.679688 887.003906 218.585938 C 881.558594 218.488281 878.058594 217.121094 880.597656 216.082031 C 885.339844 214.140625 916.003906 217.585938 923.390625 220.886719 Z M 927.359375 194.867188 C 926.285156 198.257812 905.503906 211.933594 932.523438 182.632812 C 936.988281 177.792969 937.914062 176.242188 936.335938 176.242188 C 933.460938 176.242188 913.714844 201.757812 913.234375 202.324219 C 908.726562 207.585938 902.957031 207.269531 907.078125 201.988281 C 908.136719 200.632812 909.964844 197.660156 911.148438 195.382812 C 916.265625 185.515625 946.46875 160.832031 946.46875 166.515625 C 946.46875 170.183594 937.703125 184.746094 933.246094 188.484375 C 930.351562 190.914062 927.703125 193.785156 927.359375 194.867188 Z M 953.015625 194.835938 C 960.632812 194.4375 967.367188 193.804688 967.976562 193.425781 C 969.859375 192.261719 982.15625 197.730469 987.964844 198.390625 C 984.785156 200.542969 985.441406 201.582031 973.558594 204.179688 C 968.429688 205.300781 962.996094 206.6875 961.480469 207.265625 C 955.824219 209.421875 947.710938 207.539062 941.820312 202.707031 C 939.871094 201.105469 940.085938 201.046875 945.710938 201.679688 C 953.671875 202.574219 969.421875 201.246094 968.914062 199.71875 C 968.191406 197.539062 958.121094 200.738281 942.53125 198.480469 C 933.460938 197.164062 937.886719 195.628906 953.015625 194.835938 Z M 971.097656 177.277344 C 970.578125 177.277344 971.945312 174.601562 974.136719 171.328125 C 986.566406 152.796875 985.195312 143.457031 980.246094 154.667969 C 977.011719 161.992188 969.480469 173.929688 965.816406 177.535156 C 962.519531 180.78125 960.324219 181.304688 961.46875 178.570312 C 966.191406 167.339844 967.242188 160.757812 972.550781 156.789062 C 973.542969 156.042969 974.359375 155.011719 974.359375 154.496094 C 974.359375 152.699219 980.15625 144.410156 983.84375 140.941406 C 992.574219 132.714844 991.863281 132.835938 991.234375 139.675781 C 990.269531 150.195312 975.765625 177.277344 971.097656 177.277344 Z M 1034.570312 147.695312 C 1032.25 151.710938 1017.960938 164.890625 1014.296875 166.398438 C 995.371094 174.175781 997.4375 177.78125 984.6875 175.253906 C 980.585938 174.441406 980.953125 174.28125 991.671875 172.160156 C 996.597656 171.1875 1008.070312 166.171875 1011.273438 163.589844 C 1014.238281 161.203125 1011.109375 161.015625 1006.777344 163.320312 C 1001.46875 166.148438 984.769531 171.5 983.917969 170.644531 C 982.144531 168.867188 993.609375 161.269531 1002.015625 158.648438 C 1005.296875 157.625 1011.6875 154.871094 1016.21875 152.523438 C 1024.261719 148.355469 1035.96875 145.277344 1034.570312 147.695312 Z M 1034.570312 147.695312 " fill-opacity="1" fill-rule="nonzero"/></g></svg>