<svg xmlns="http://www.w3.org/2000/svg" xmlns:xlink="http://www.w3.org/1999/xlink" width="793" zoomAndPan="magnify" viewBox="0 0 595.5 842.249979" height="1122" preserveAspectRatio="xMidYMid meet" version="1.0"><defs><clipPath id="a168cc84e9"><path d="M 0.015625 113 L 55 113 L 55 595.46875 L 0.015625 595.46875 Z M 0.015625 113 " clip-rule="nonzero"/></clipPath><clipPath id="f6ee6778c9"><path d="M 113 0 L 594.984375 0 L 594.984375 55 L 113 55 Z M 113 0 " clip-rule="nonzero"/></clipPath></defs><path fill="#baa291" d="M 61.214844 61.199219 C 64.417969 67.015625 66.179688 73.242188 66.492188 79.875 C 68.542969 78.921875 70.695312 78.410156 72.953125 78.339844 C 75.210938 78.269531 77.394531 78.648438 79.5 79.472656 C 78.675781 77.367188 78.296875 75.1875 78.367188 72.925781 C 78.4375 70.667969 78.949219 68.515625 79.902344 66.464844 C 73.265625 66.15625 67.035156 64.402344 61.214844 61.199219 Z M 61.214844 61.199219 " fill-opacity="1" fill-rule="nonzero"/><path fill="#baa291" d="M 16.171875 97.898438 C 17.300781 99.707031 18.6875 101.292969 20.332031 102.652344 C 22.023438 104.09375 23.890625 105.257812 25.929688 106.136719 L 26.632812 106.421875 L 27.320312 106.660156 L 27.988281 106.886719 L 28.628906 107.0625 L 28.9375 107.148438 L 29.234375 107.21875 L 29.804688 107.347656 L 30.339844 107.46875 L 30.839844 107.550781 L 31.683594 107.679688 L 32.328125 107.753906 L 32.863281 107.753906 L 32.375 107.515625 L 31.875 107.300781 L 31.136719 106.910156 L 30.6875 106.683594 L 30.234375 106.410156 L 29.746094 106.125 L 29.496094 105.96875 L 29.246094 105.804688 L 28.726562 105.457031 L 28.191406 105.078125 L 27.644531 104.6875 L 27.121094 104.246094 C 25.59375 103.011719 24.21875 101.628906 22.996094 100.097656 C 20.796875 97.238281 18.957031 94.164062 17.480469 90.871094 C 16.710938 89.066406 16.144531 87.199219 15.777344 85.273438 L 15.660156 84.59375 C 15.660156 84.367188 15.601562 84.144531 15.566406 83.929688 C 15.527344 83.714844 15.503906 83.488281 15.480469 83.289062 L 15.480469 82.371094 C 15.480469 82.277344 15.480469 82.167969 15.480469 82.074219 L 15.480469 80.503906 C 15.480469 80.195312 15.480469 79.910156 15.480469 79.660156 L 15.480469 78.496094 L 15.265625 78.996094 L 15.019531 79.589844 C 14.921875 79.828125 14.839844 80.089844 14.734375 80.398438 L 14.566406 80.875 L 14.410156 81.398438 L 14.257812 81.96875 C 14.257812 82.0625 14.257812 82.167969 14.1875 82.265625 L 14.113281 82.574219 L 13.972656 83.226562 C 13.972656 83.453125 13.886719 83.679688 13.851562 83.917969 C 13.816406 84.15625 13.769531 84.394531 13.746094 84.640625 L 13.664062 85.390625 C 13.449219 87.609375 13.570312 89.808594 14.019531 91.988281 C 14.421875 94.074219 15.136719 96.042969 16.171875 97.898438 Z M 16.171875 97.898438 " fill-opacity="1" fill-rule="nonzero"/><path fill="#baa291" d="M 17.371094 137.664062 L 17.371094 136.972656 C 17.523438 135.015625 17.886719 133.097656 18.453125 131.21875 C 19.570312 127.789062 21.066406 124.539062 22.945312 121.460938 C 24.003906 119.804688 25.222656 118.285156 26.609375 116.894531 L 27.109375 116.40625 L 27.605469 115.957031 L 28.09375 115.515625 L 28.582031 115.125 L 28.820312 114.933594 L 29.046875 114.753906 L 29.496094 114.421875 L 29.925781 114.101562 L 30.328125 113.828125 L 31.03125 113.363281 L 31.566406 113.03125 L 32.03125 112.746094 L 31.496094 112.851562 L 30.863281 112.984375 L 30.042969 113.210938 L 29.558594 113.339844 L 29.035156 113.519531 L 28.476562 113.707031 L 28.191406 113.816406 L 27.890625 113.933594 L 27.273438 114.183594 L 26.644531 114.46875 L 25.992188 114.789062 L 25.324219 115.148438 C 23.375 116.222656 21.628906 117.5625 20.082031 119.164062 C 18.570312 120.691406 17.363281 122.433594 16.464844 124.386719 C 15.566406 126.339844 15.027344 128.386719 14.851562 130.53125 C 14.640625 132.742188 14.757812 134.9375 15.207031 137.117188 L 15.363281 137.851562 C 15.363281 138.089844 15.492188 138.328125 15.554688 138.554688 C 15.613281 138.78125 15.671875 139.007812 15.742188 139.21875 L 15.957031 139.851562 L 16.0625 140.148438 C 16.0625 140.242188 16.136719 140.351562 16.171875 140.433594 L 16.386719 140.980469 L 16.585938 141.492188 L 16.800781 141.941406 C 16.945312 142.226562 17.050781 142.488281 17.167969 142.714844 L 17.480469 143.273438 L 17.738281 143.75 L 17.65625 143.214844 L 17.5625 142.585938 C 17.5625 142.335938 17.503906 142.0625 17.464844 141.753906 L 17.464844 140.183594 C 17.464844 140.089844 17.464844 139.992188 17.464844 139.886719 L 17.464844 138.957031 C 17.464844 138.746094 17.464844 138.53125 17.464844 138.304688 C 17.464844 138.078125 17.359375 137.925781 17.371094 137.664062 Z M 17.371094 137.664062 " fill-opacity="1" fill-rule="nonzero"/><path fill="#baa291" d="M 60.40625 104.746094 L 59.714844 105.007812 L 58.945312 105.304688 C 56.046875 106.445312 53.273438 107.832031 50.621094 109.464844 C 50.230469 109.703125 49.824219 109.964844 49.433594 110.226562 L 48.839844 110.628906 L 48.234375 111.046875 C 47.839844 111.332031 47.4375 111.617188 47.042969 111.914062 L 46.449219 112.367188 L 45.855469 112.828125 C 45.070312 113.460938 44.285156 114.125 43.535156 114.824219 C 43.15625 115.171875 42.789062 115.527344 42.417969 115.882812 L 41.882812 116.429688 L 41.609375 116.703125 L 41.351562 116.988281 C 40.648438 117.738281 39.984375 118.511719 39.351562 119.308594 L 38.890625 119.902344 L 38.4375 120.507812 C 38.140625 120.902344 37.867188 121.316406 37.582031 121.699219 C 36.550781 123.230469 35.65625 124.839844 34.894531 126.523438 C 34.132812 128.203125 33.523438 129.933594 33.0625 131.71875 C 32.582031 133.695312 32.289062 135.703125 32.183594 137.734375 C 32.078125 139.800781 32.15625 141.863281 32.421875 143.917969 C 32.671875 145.863281 33.066406 147.78125 33.609375 149.667969 C 34.105469 151.332031 34.707031 152.957031 35.40625 154.542969 C 36.035156 155.996094 36.691406 157.242188 37.25 158.265625 L 37.652344 158.988281 C 37.785156 159.214844 37.914062 159.429688 38.03125 159.632812 C 38.269531 160.023438 38.472656 160.367188 38.652344 160.640625 L 39.1875 161.488281 L 38.816406 160.558594 C 38.699219 160.261719 38.554688 159.894531 38.402344 159.464844 C 38.316406 159.25 38.234375 159.027344 38.152344 158.777344 L 37.878906 157.992188 C 37.511719 156.898438 37.09375 155.613281 36.691406 154.09375 C 36.277344 152.480469 35.957031 150.851562 35.726562 149.207031 C 35.476562 147.386719 35.351562 145.5625 35.347656 143.726562 C 35.386719 140.03125 35.972656 136.425781 37.105469 132.90625 C 37.605469 131.351562 38.1875 129.824219 38.851562 128.332031 C 39.523438 126.832031 40.269531 125.367188 41.089844 123.945312 C 41.3125 123.5625 41.527344 123.183594 41.777344 122.753906 L 42.132812 122.183594 L 42.503906 121.613281 C 43.015625 120.851562 43.550781 120.09375 44.121094 119.34375 L 44.332031 119.058594 L 44.546875 118.785156 L 44.988281 118.226562 C 45.296875 117.859375 45.582031 117.488281 45.902344 117.132812 C 46.519531 116.40625 47.164062 115.707031 47.816406 115.015625 L 48.316406 114.503906 L 48.816406 114.003906 C 49.148438 113.671875 49.492188 113.351562 49.824219 113.03125 L 50.335938 112.566406 L 50.847656 112.105469 C 51.191406 111.804688 51.527344 111.496094 51.871094 111.210938 C 54.183594 109.257812 56.632812 107.492188 59.21875 105.910156 L 59.917969 105.480469 L 60.546875 105.101562 L 61.570312 104.519531 L 62.449219 104.03125 L 61.5 104.339844 Z M 60.40625 104.746094 " fill-opacity="1" fill-rule="nonzero"/><path fill="#baa291" d="M 43.359375 59.925781 C 43.65625 59.976562 43.949219 60.039062 44.238281 60.117188 C 44.058594 60.414062 42.527344 60.390625 42.121094 60.460938 C 41.070312 60.632812 40.039062 60.867188 39.019531 61.175781 C 37.847656 61.542969 36.710938 61.992188 35.609375 62.53125 C 34.324219 63.160156 33.105469 63.898438 31.957031 64.753906 C 30.660156 65.707031 29.472656 66.78125 28.390625 67.976562 C 26.613281 69.972656 25.203125 72.199219 24.160156 74.65625 C 24.160156 74.761719 24.078125 74.871094 24.027344 74.976562 L 23.898438 75.296875 L 23.765625 75.632812 C 23.765625 75.738281 23.683594 75.84375 23.648438 75.964844 L 23.421875 76.628906 L 23.316406 76.960938 L 23.21875 77.308594 C 22.679688 79.179688 22.363281 81.089844 22.269531 83.039062 L 22.269531 85.285156 C 22.269531 85.535156 22.269531 85.785156 22.328125 86.046875 C 22.417969 87.0625 22.589844 88.0625 22.839844 89.054688 C 23.339844 91.058594 24.132812 92.941406 25.21875 94.699219 C 25.761719 95.566406 26.363281 96.390625 27.023438 97.171875 C 27.6875 97.941406 28.402344 98.664062 29.164062 99.335938 C 30.675781 100.652344 32.34375 101.722656 34.167969 102.546875 C 34.621094 102.734375 35.0625 102.9375 35.523438 103.09375 C 35.988281 103.246094 36.441406 103.402344 36.890625 103.542969 L 37.582031 103.722656 L 37.925781 103.804688 L 38.269531 103.878906 L 38.960938 104.019531 L 39.648438 104.125 L 40.339844 104.125 L 41.015625 104.1875 L 45.011719 104.1875 L 45.664062 104.078125 L 46.320312 103.9375 L 46.972656 103.769531 L 47.625 103.582031 L 47.949219 103.472656 L 48.269531 103.355469 L 48.921875 103.105469 L 49.5625 102.820312 L 49.730469 102.746094 L 49.886719 102.664062 L 50.207031 102.5 C 52.003906 101.550781 53.574219 100.320312 54.921875 98.800781 C 56.269531 97.28125 57.304688 95.574219 58.027344 93.675781 C 58.816406 91.71875 59.214844 89.679688 59.21875 87.566406 C 59.21875 87.042969 59.21875 86.519531 59.132812 85.984375 C 59.132812 85.855469 59.132812 85.722656 59.132812 85.582031 L 59.132812 85.175781 L 59.0625 84.785156 C 59.0625 84.65625 59.0625 84.523438 58.980469 84.394531 C 58.496094 82.265625 57.550781 80.371094 56.136719 78.710938 L 55.875 78.414062 L 55.617188 78.117188 L 55.34375 77.832031 L 55.199219 77.6875 L 55.054688 77.558594 L 54.769531 77.296875 L 54.308594 77.035156 L 54 76.785156 L 53.6875 76.546875 C 52.855469 75.933594 51.957031 75.425781 51.003906 75.023438 C 50.066406 74.628906 49.09375 74.347656 48.089844 74.179688 C 47.113281 74.019531 46.128906 73.96875 45.140625 74.027344 C 44.902344 74.027344 44.65625 74.027344 44.40625 74.085938 L 43.679688 74.085938 L 43.324219 74.15625 L 42.964844 74.253906 L 42.609375 74.253906 L 42.265625 74.359375 C 41.425781 74.640625 40.640625 75.027344 39.898438 75.511719 C 39.160156 75.996094 38.492188 76.566406 37.902344 77.222656 C 37.308594 77.875 36.804688 78.597656 36.398438 79.378906 C 35.988281 80.164062 35.6875 80.988281 35.488281 81.847656 C 35.320312 82.597656 35.238281 83.351562 35.238281 84.121094 C 35.214844 84.941406 35.304688 85.75 35.511719 86.542969 C 35.675781 87.195312 35.917969 87.8125 36.238281 88.398438 C 36.527344 88.933594 36.871094 89.429688 37.273438 89.886719 C 37.945312 90.652344 38.738281 91.265625 39.648438 91.726562 C 40.332031 92.0625 41.050781 92.292969 41.800781 92.417969 C 42.070312 92.457031 42.339844 92.484375 42.609375 92.5 L 43.203125 92.5 C 42.003906 92.367188 40.902344 91.96875 39.898438 91.300781 C 39.085938 90.800781 38.390625 90.171875 37.820312 89.410156 C 37.136719 88.476562 36.703125 87.4375 36.523438 86.296875 C 36.445312 85.667969 36.445312 85.042969 36.523438 84.417969 C 36.582031 83.75 36.710938 83.09375 36.914062 82.457031 C 37.113281 81.808594 37.378906 81.1875 37.710938 80.601562 C 38.074219 79.972656 38.507812 79.398438 39.007812 78.875 C 40.101562 77.808594 41.390625 77.082031 42.871094 76.703125 L 43.144531 76.640625 L 44.570312 76.640625 C 44.761719 76.640625 44.953125 76.640625 45.152344 76.640625 C 45.957031 76.65625 46.75 76.761719 47.53125 76.949219 C 49.125 77.347656 50.546875 78.078125 51.800781 79.136719 L 52.023438 79.339844 L 52.25 79.542969 L 52.464844 79.757812 L 52.679688 79.980469 L 52.785156 80.089844 L 52.882812 80.207031 L 53.082031 80.433594 L 53.464844 80.910156 C 54.441406 82.226562 55.0625 83.691406 55.328125 85.308594 C 55.328125 85.402344 55.328125 85.511719 55.328125 85.605469 L 55.328125 86.199219 C 55.328125 86.296875 55.328125 86.402344 55.328125 86.496094 L 55.328125 87.402344 C 55.328125 87.507812 55.328125 87.601562 55.328125 87.710938 C 55.25 89.332031 54.878906 90.886719 54.210938 92.371094 C 53.574219 93.796875 52.710938 95.066406 51.621094 96.1875 C 50.578125 97.246094 49.390625 98.101562 48.054688 98.753906 L 47.816406 98.871094 L 47.578125 98.871094 L 47.101562 99.074219 L 46.617188 99.253906 L 46.140625 99.417969 L 45.652344 99.5625 L 45.164062 99.679688 L 44.679688 99.789062 L 44.191406 99.871094 L 39.996094 99.871094 L 39.449219 99.800781 L 39.113281 99.621094 L 38.839844 99.621094 L 38.566406 99.5625 L 38.019531 99.429688 C 37.652344 99.324219 37.285156 99.242188 36.925781 99.109375 C 36.570312 98.980469 36.203125 98.847656 35.832031 98.71875 C 34.347656 98.121094 32.972656 97.328125 31.707031 96.339844 C 31.066406 95.824219 30.460938 95.269531 29.890625 94.675781 C 29.316406 94.046875 28.789062 93.382812 28.308594 92.679688 C 27.335938 91.277344 26.589844 89.765625 26.074219 88.136719 C 25.8125 87.324219 25.613281 86.496094 25.480469 85.652344 C 25.480469 85.4375 25.40625 85.238281 25.382812 85.023438 L 25.324219 84.382812 L 25.324219 83.085938 C 25.289062 81.359375 25.445312 79.652344 25.800781 77.960938 C 25.800781 77.855469 25.800781 77.746094 25.859375 77.652344 L 25.941406 77.34375 L 26.097656 76.726562 C 26.097656 76.617188 26.097656 76.523438 26.179688 76.417969 L 26.277344 76.117188 L 26.371094 75.820312 C 26.371094 75.726562 26.371094 75.621094 26.464844 75.523438 C 27.75 71.722656 29.894531 68.496094 32.898438 65.835938 C 33.914062 64.945312 35.003906 64.152344 36.167969 63.457031 C 37.152344 62.835938 38.179688 62.289062 39.246094 61.816406 C 40.835938 61.160156 42.480469 60.6875 44.179688 60.390625 C 45.8125 60.207031 47.441406 60.25 49.066406 60.523438 C 51.828125 60.816406 54.5625 60.652344 57.269531 60.023438 C 55.582031 60.027344 53.925781 59.820312 52.296875 59.390625 C 47.230469 58.382812 42.535156 56.460938 38.210938 53.625 C 37.070312 52.890625 35.972656 52.097656 34.917969 51.25 C 31.746094 48.640625 29.042969 45.609375 26.808594 42.160156 C 24.578125 38.710938 22.921875 35.003906 21.839844 31.039062 C 21.777344 34.410156 22.253906 37.703125 23.269531 40.917969 C 24.289062 44.132812 25.792969 47.101562 27.785156 49.824219 C 29.699219 52.378906 31.992188 54.523438 34.671875 56.261719 C 37.351562 58 40.246094 59.222656 43.359375 59.925781 Z M 43.359375 59.925781 " fill-opacity="1" fill-rule="nonzero"/><path fill="#baa291" d="M 17.871094 110.699219 C 17.867188 110.761719 17.867188 110.820312 17.871094 110.878906 C 17.871094 110.878906 17.871094 111 17.871094 111.058594 C 18.007812 111.5625 18.253906 112.003906 18.613281 112.386719 C 18.96875 112.765625 19.398438 113.042969 19.890625 113.210938 C 20.144531 113.328125 20.402344 113.429688 20.664062 113.519531 C 20.582031 114.003906 20.648438 114.464844 20.871094 114.902344 C 21.089844 115.339844 21.417969 115.671875 21.851562 115.894531 C 22.769531 113.636719 25.667969 111.710938 29.617188 110.617188 C 25.632812 109.691406 22.648438 107.882812 21.640625 105.671875 C 21.207031 105.914062 20.886719 106.257812 20.683594 106.707031 C 20.480469 107.160156 20.429688 107.625 20.535156 108.109375 C 20.273438 108.210938 20.019531 108.324219 19.773438 108.453125 C 19.289062 108.648438 18.878906 108.941406 18.542969 109.339844 C 18.207031 109.738281 17.980469 110.191406 17.871094 110.699219 Z M 17.871094 110.699219 " fill-opacity="1" fill-rule="nonzero"/><path fill="#baa291" d="M 1.941406 193.773438 L 2.15625 193.347656 C 2.25 193.179688 2.355469 193 2.476562 192.800781 L 2.667969 192.476562 L 2.890625 192.144531 L 3.140625 191.789062 L 3.285156 191.609375 L 3.425781 191.433594 L 3.722656 191.050781 L 4.070312 190.671875 L 4.425781 190.292969 L 4.816406 189.910156 C 5.992188 188.8125 7.296875 187.898438 8.730469 187.164062 C 10.136719 186.457031 11.59375 185.859375 13.09375 185.371094 C 14.601562 184.875 16.132812 184.476562 17.691406 184.179688 L 17.871094 184.179688 C 19.769531 183.835938 21.683594 183.671875 23.613281 183.691406 L 26.988281 183.691406 L 27.582031 183.765625 L 28.140625 183.835938 L 28.652344 183.917969 L 29.542969 184.0625 L 30.210938 184.191406 L 30.78125 184.300781 L 30.339844 183.917969 L 29.816406 183.480469 L 29.152344 182.886719 L 28.773438 182.539062 L 28.378906 182.148438 L 27.953125 181.730469 L 27.738281 181.519531 L 27.523438 181.292969 L 27.070312 180.816406 L 26.621094 180.316406 L 26.167969 179.792969 L 25.71875 179.246094 C 24.503906 177.765625 23.445312 176.179688 22.542969 174.492188 L 22.542969 174.398438 C 21.808594 172.972656 21.175781 171.507812 20.640625 170 C 20.097656 168.53125 19.671875 167.035156 19.355469 165.503906 C 19.050781 163.929688 18.972656 162.347656 19.121094 160.75 L 19.121094 160.214844 C 19.121094 160.035156 19.121094 159.871094 19.203125 159.703125 C 19.285156 159.535156 19.203125 159.371094 19.285156 159.203125 L 19.390625 158.742188 L 19.390625 158.515625 C 19.390625 158.441406 19.390625 158.359375 19.390625 158.300781 L 19.523438 157.894531 L 19.640625 157.515625 L 19.773438 157.171875 C 19.855469 156.957031 19.925781 156.753906 20.011719 156.578125 L 20.210938 156.136719 L 20.378906 155.769531 L 20.035156 156.03125 L 19.628906 156.351562 L 19.132812 156.800781 L 18.847656 157.074219 L 18.558594 157.386719 L 18.25 157.71875 L 18.097656 157.894531 L 17.941406 158.085938 L 17.621094 158.492188 C 17.515625 158.632812 17.417969 158.777344 17.324219 158.929688 C 17.230469 159.085938 17.121094 159.238281 17.027344 159.394531 L 16.753906 159.894531 C 15.949219 161.410156 15.496094 163.027344 15.398438 164.742188 C 15.34375 165.746094 15.402344 166.738281 15.578125 167.726562 C 15.917969 169.574219 16.441406 171.371094 17.144531 173.113281 C 17.953125 174.992188 19.308594 176.796875 20.34375 178.652344 C 20.9375 179.722656 20.523438 179.925781 19.367188 180.066406 L 14.292969 180.636719 C 12.960938 180.878906 11.675781 181.273438 10.441406 181.828125 L 10.285156 181.828125 C 8.578125 182.40625 7.039062 183.285156 5.671875 184.464844 C 4.382812 185.6875 3.417969 187.125 2.773438 188.78125 L 2.546875 189.304688 C 2.476562 189.484375 2.429688 189.660156 2.367188 189.828125 C 2.308594 189.992188 2.25 190.160156 2.203125 190.339844 L 2.082031 190.839844 L 2.082031 191.074219 C 2.078125 191.15625 2.078125 191.234375 2.082031 191.3125 L 2.011719 191.765625 L 1.941406 192.179688 L 1.941406 192.574219 C 1.941406 192.824219 1.941406 193.050781 1.941406 193.238281 C 1.941406 193.429688 1.941406 193.609375 1.941406 193.75 C 1.941406 193.894531 1.941406 194.179688 1.941406 194.179688 Z M 1.941406 193.773438 " fill-opacity="1" fill-rule="nonzero"/><g clip-path="url(#a168cc84e9)"><path fill="#baa291" d="M 46.296875 182.171875 C 41.945312 175.632812 36.785156 169.6875 32.398438 163.152344 C 28.011719 156.613281 24.515625 149.242188 24.078125 141.394531 C 23.53125 131.386719 28.152344 121.660156 34.597656 113.980469 C 27.464844 121.578125 22.316406 131.492188 22.519531 141.882812 C 22.671875 149.882812 25.980469 157.515625 30.128906 164.363281 C 34.277344 171.210938 39.328125 177.441406 43.5 184.300781 C 47.875 191.433594 51.359375 199.824219 49.863281 208.074219 C 49.382812 210.511719 48.550781 212.824219 47.367188 215.007812 C 46.183594 217.191406 44.699219 219.148438 42.917969 220.878906 C 37.082031 226.667969 28.390625 229.710938 20.332031 228.011719 C 12.273438 226.3125 5.351562 219.535156 4.210938 211.367188 C 3.070312 203.203125 8.371094 194.441406 16.3125 192.347656 C 17.503906 192.03125 18.714844 191.863281 19.945312 191.847656 C 21.175781 191.835938 22.390625 191.972656 23.589844 192.261719 C 24.785156 192.550781 25.929688 192.984375 27.019531 193.5625 C 28.105469 194.136719 29.105469 194.839844 30.019531 195.664062 C 30.910156 196.515625 31.664062 197.472656 32.277344 198.542969 C 32.890625 199.609375 33.34375 200.742188 33.628906 201.941406 C 33.917969 203.136719 34.027344 204.351562 33.964844 205.582031 C 33.898438 206.8125 33.664062 208.007812 33.253906 209.167969 C 33.03125 209.742188 32.761719 210.289062 32.449219 210.816406 C 32.136719 211.34375 31.78125 211.84375 31.386719 212.3125 C 30.992188 212.785156 30.5625 213.21875 30.097656 213.621094 C 29.632812 214.019531 29.140625 214.378906 28.617188 214.699219 C 28.09375 215.019531 27.546875 215.292969 26.980469 215.527344 C 26.410156 215.757812 25.828125 215.941406 25.230469 216.078125 C 24.632812 216.210938 24.027344 216.300781 23.414062 216.335938 C 22.800781 216.375 22.191406 216.363281 21.578125 216.300781 C 22.753906 216.460938 23.925781 216.445312 25.097656 216.25 C 26.265625 216.054688 27.378906 215.695312 28.441406 215.164062 C 29.5 214.632812 30.460938 213.960938 31.316406 213.140625 C 32.171875 212.320312 32.890625 211.394531 33.46875 210.359375 C 34.011719 209.300781 34.414062 208.191406 34.664062 207.03125 C 34.917969 205.867188 35.015625 204.695312 34.957031 203.507812 C 34.902344 202.316406 34.691406 201.160156 34.328125 200.027344 C 33.964844 198.894531 33.457031 197.828125 32.8125 196.828125 C 32.148438 195.839844 31.378906 194.941406 30.511719 194.125 C 29.640625 193.3125 28.691406 192.601562 27.660156 192.003906 C 26.632812 191.402344 25.550781 190.921875 24.414062 190.566406 C 23.277344 190.207031 22.113281 189.980469 20.925781 189.886719 C 20.058594 189.835938 19.1875 189.839844 18.320312 189.910156 C 17.453125 189.976562 16.59375 190.105469 15.742188 190.292969 C 14.894531 190.480469 14.058594 190.722656 13.242188 191.027344 C 12.425781 191.332031 11.636719 191.6875 10.871094 192.101562 C 10.101562 192.511719 9.367188 192.976562 8.667969 193.492188 C 7.964844 194.007812 7.300781 194.566406 6.675781 195.175781 C 6.054688 195.78125 5.472656 196.429688 4.9375 197.117188 C 4.40625 197.804688 3.921875 198.523438 3.488281 199.277344 C 2.652344 200.8125 2.011719 202.425781 1.566406 204.117188 C 1.121094 205.808594 0.882812 207.527344 0.851562 209.273438 C 0.820312 211.023438 0.996094 212.75 1.382812 214.453125 C 1.769531 216.15625 2.351562 217.792969 3.128906 219.355469 C 4.933594 222.9375 7.460938 225.902344 10.714844 228.25 C 12.277344 229.390625 13.945312 230.355469 15.71875 231.136719 C 17.65625 231.996094 20.472656 231.671875 21.839844 233.515625 C 23.742188 236.144531 23.457031 239.601562 23.816406 242.65625 C 24.421875 247.839844 25.144531 252.988281 25.46875 258.195312 C 25.585938 260.066406 25.675781 261.941406 25.742188 263.820312 C 26.265625 278.65625 26.25 440.582031 26.109375 595.316406 L 29.378906 595.316406 C 29.246094 440.558594 29.234375 278.582031 29.746094 263.746094 C 29.949219 257.957031 30.53125 252.191406 31.304688 246.449219 C 31.910156 241.933594 31.636719 234.953125 35.203125 231.601562 C 37.140625 229.792969 39.589844 228.664062 41.824219 227.226562 C 43.726562 225.96875 45.449219 224.5 46.992188 222.816406 C 48.535156 221.136719 49.851562 219.292969 50.9375 217.289062 C 52.027344 215.285156 52.859375 213.179688 53.429688 210.96875 C 54.003906 208.761719 54.300781 206.515625 54.320312 204.234375 C 54.320312 203.902344 54.320312 203.570312 54.320312 203.238281 C 53.976562 195.59375 50.503906 188.484375 46.296875 182.171875 Z M 46.296875 182.171875 " fill-opacity="1" fill-rule="nonzero"/></g><path fill="#baa291" d="M 26.417969 204.617188 C 26.417969 204.996094 26.382812 205.375 26.308594 205.75 C 26.230469 206.125 26.121094 206.488281 25.976562 206.839844 C 25.828125 207.195312 25.652344 207.527344 25.4375 207.847656 C 25.226562 208.164062 24.984375 208.457031 24.714844 208.726562 C 24.445312 208.996094 24.152344 209.238281 23.835938 209.449219 C 23.515625 209.660156 23.183594 209.839844 22.828125 209.988281 C 22.476562 210.132812 22.113281 210.242188 21.738281 210.316406 C 21.363281 210.390625 20.988281 210.429688 20.605469 210.429688 C 20.222656 210.429688 19.84375 210.390625 19.472656 210.316406 C 19.097656 210.242188 18.734375 210.132812 18.378906 209.988281 C 18.027344 209.839844 17.691406 209.660156 17.375 209.449219 C 17.058594 209.238281 16.765625 208.996094 16.496094 208.726562 C 16.226562 208.457031 15.984375 208.164062 15.773438 207.847656 C 15.558594 207.527344 15.378906 207.195312 15.234375 206.839844 C 15.089844 206.488281 14.976562 206.125 14.902344 205.75 C 14.828125 205.375 14.792969 204.996094 14.792969 204.617188 C 14.792969 204.234375 14.828125 203.855469 14.902344 203.480469 C 14.976562 203.109375 15.089844 202.746094 15.234375 202.390625 C 15.378906 202.039062 15.558594 201.703125 15.773438 201.386719 C 15.984375 201.070312 16.226562 200.777344 16.496094 200.503906 C 16.765625 200.234375 17.058594 199.996094 17.375 199.78125 C 17.691406 199.570312 18.027344 199.390625 18.378906 199.246094 C 18.734375 199.097656 19.097656 198.988281 19.472656 198.914062 C 19.84375 198.839844 20.222656 198.804688 20.605469 198.804688 C 20.988281 198.804688 21.363281 198.839844 21.738281 198.914062 C 22.113281 198.988281 22.476562 199.097656 22.828125 199.246094 C 23.183594 199.390625 23.515625 199.570312 23.835938 199.78125 C 24.152344 199.996094 24.445312 200.234375 24.714844 200.503906 C 24.984375 200.777344 25.226562 201.070312 25.4375 201.386719 C 25.652344 201.703125 25.828125 202.039062 25.976562 202.390625 C 26.121094 202.746094 26.230469 203.109375 26.308594 203.480469 C 26.382812 203.855469 26.417969 204.234375 26.417969 204.617188 Z M 26.417969 204.617188 " fill-opacity="1" fill-rule="nonzero"/><path fill="#baa291" d="M 79.675781 15.289062 L 83.289062 15.289062 L 83.933594 15.371094 L 84.597656 15.464844 L 85.277344 15.585938 C 87.203125 15.949219 89.070312 16.515625 90.875 17.285156 C 94.164062 18.761719 97.242188 20.601562 100.101562 22.800781 C 101.644531 24.082031 103.03125 25.515625 104.261719 27.105469 L 104.6875 27.652344 L 105.082031 28.199219 L 105.460938 28.734375 L 105.804688 29.257812 L 105.972656 29.507812 L 106.128906 29.753906 L 106.414062 30.242188 L 106.6875 30.695312 L 106.910156 31.121094 C 107.054688 31.394531 107.199219 31.644531 107.304688 31.859375 L 107.578125 32.429688 L 107.816406 32.917969 L 107.816406 32.382812 L 107.746094 31.742188 C 107.746094 31.492188 107.660156 31.207031 107.613281 30.898438 L 107.53125 30.398438 L 107.410156 29.863281 L 107.28125 29.292969 C 107.28125 29.195312 107.28125 29.089844 107.210938 28.996094 L 107.125 28.6875 L 106.949219 28.042969 C 106.886719 27.828125 106.804688 27.605469 106.722656 27.378906 C 106.636719 27.152344 106.566406 26.925781 106.484375 26.6875 L 106.152344 25.914062 C 105.289062 23.863281 104.144531 21.988281 102.714844 20.28125 C 101.363281 18.617188 99.769531 17.234375 97.929688 16.128906 C 96.09375 15.027344 94.121094 14.269531 92.015625 13.863281 C 89.835938 13.410156 87.636719 13.292969 85.417969 13.503906 L 84.667969 13.589844 L 83.945312 13.695312 L 83.253906 13.8125 L 82.601562 13.957031 L 82.292969 14.027344 L 81.996094 14.097656 L 81.425781 14.253906 L 80.902344 14.410156 L 80.425781 14.574219 L 79.617188 14.859375 L 79.023438 15.109375 L 78.523438 15.324219 L 79.058594 15.324219 Z M 79.675781 15.289062 " fill-opacity="1" fill-rule="nonzero"/><path fill="#baa291" d="M 114.828125 26 C 114.710938 26.214844 114.617188 26.4375 114.507812 26.652344 C 114.402344 26.867188 114.304688 27.082031 114.222656 27.28125 L 113.972656 27.902344 L 113.855469 28.199219 C 113.855469 28.292969 113.769531 28.386719 113.746094 28.484375 L 113.558594 29.042969 L 113.378906 29.566406 L 113.25 30.054688 C 113.164062 30.363281 113.082031 30.636719 113.023438 30.875 L 112.890625 31.503906 L 112.785156 32.039062 L 113.070312 31.574219 L 113.402344 31.039062 C 113.535156 30.824219 113.699219 30.601562 113.867188 30.339844 L 114.140625 29.933594 L 114.460938 29.507812 L 114.792969 29.054688 L 114.972656 28.828125 L 115.164062 28.589844 L 115.554688 28.101562 L 115.996094 27.617188 L 116.445312 27.117188 L 116.933594 26.617188 C 118.324219 25.230469 119.84375 24.011719 121.5 22.957031 C 124.578125 21.078125 127.828125 19.578125 131.257812 18.460938 C 133.136719 17.894531 135.054688 17.53125 137.011719 17.378906 L 141.828125 17.378906 L 142.660156 17.476562 L 143.289062 17.570312 L 143.824219 17.652344 L 143.347656 17.390625 L 142.789062 17.082031 L 142.015625 16.714844 L 141.566406 16.5 L 141.066406 16.296875 L 140.519531 16.085938 L 140.234375 15.976562 L 139.9375 15.871094 L 139.308594 15.65625 L 138.640625 15.464844 L 137.941406 15.277344 L 137.203125 15.121094 C 135.023438 14.671875 132.828125 14.554688 130.617188 14.765625 C 128.472656 14.941406 126.425781 15.476562 124.472656 16.378906 C 122.519531 17.277344 120.777344 18.480469 119.25 19.996094 C 117.648438 21.542969 116.308594 23.289062 115.234375 25.238281 Z M 114.828125 26 " fill-opacity="1" fill-rule="nonzero"/><path fill="#baa291" d="M 159.695312 38.078125 L 159.054688 37.695312 L 158.328125 37.292969 C 157.304688 36.734375 156.058594 36.105469 154.605469 35.449219 C 153.019531 34.75 151.394531 34.152344 149.734375 33.65625 C 147.84375 33.109375 145.925781 32.714844 143.980469 32.464844 C 141.925781 32.199219 139.863281 32.121094 137.796875 32.226562 C 135.75 32.3125 133.730469 32.585938 131.734375 33.046875 C 129.933594 33.488281 128.1875 34.085938 126.492188 34.832031 C 124.808594 35.59375 123.199219 36.488281 121.664062 37.519531 C 121.261719 37.792969 120.855469 38.066406 120.476562 38.375 L 119.871094 38.828125 L 119.277344 39.289062 C 118.492188 39.917969 117.707031 40.585938 116.957031 41.285156 L 116.671875 41.546875 L 116.398438 41.820312 L 115.851562 42.355469 C 115.496094 42.726562 115.125 43.09375 114.792969 43.472656 C 114.09375 44.222656 113.4375 45.007812 112.796875 45.792969 L 112.332031 46.386719 L 111.882812 46.980469 C 111.582031 47.375 111.296875 47.777344 111.011719 48.171875 L 110.597656 48.777344 L 110.191406 49.371094 C 109.929688 49.773438 109.671875 50.167969 109.433594 50.558594 C 107.796875 53.210938 106.410156 55.984375 105.269531 58.882812 C 105.164062 59.15625 105.070312 59.417969 104.972656 59.652344 L 104.710938 60.34375 C 104.558594 60.785156 104.425781 61.152344 104.320312 61.460938 L 104.011719 62.410156 L 104.5 61.53125 L 105.082031 60.511719 L 105.460938 59.878906 L 105.890625 59.179688 C 107.472656 56.589844 109.246094 54.136719 111.203125 51.820312 C 111.488281 51.476562 111.785156 51.140625 112.09375 50.796875 L 113.023438 49.773438 C 113.34375 49.441406 113.664062 49.097656 113.996094 48.765625 L 114.496094 48.265625 L 115.007812 47.765625 C 115.695312 47.113281 116.398438 46.46875 117.125 45.851562 C 117.480469 45.542969 117.859375 45.246094 118.21875 44.9375 L 118.777344 44.496094 L 119.050781 44.28125 L 119.335938 44.070312 C 120.082031 43.5 120.84375 42.964844 121.605469 42.453125 L 122.175781 42.082031 L 122.746094 41.726562 C 123.128906 41.488281 123.507812 41.261719 123.9375 41.039062 C 125.359375 40.21875 126.820312 39.472656 128.324219 38.800781 C 129.824219 38.148438 131.359375 37.578125 132.921875 37.089844 C 136.460938 35.984375 140.082031 35.429688 143.789062 35.425781 C 145.625 35.429688 147.449219 35.558594 149.269531 35.804688 C 150.914062 36.035156 152.542969 36.359375 154.15625 36.769531 C 155.640625 37.136719 156.949219 37.566406 158.054688 37.957031 L 158.839844 38.230469 L 159.527344 38.480469 L 160.621094 38.898438 L 161.550781 39.265625 L 160.707031 38.730469 Z M 159.695312 38.078125 " fill-opacity="1" fill-rule="nonzero"/><path fill="#baa291" d="M 104.164062 44.6875 L 104.164062 43.355469 C 104.164062 43.25 104.164062 43.128906 104.164062 43.023438 L 104.164062 42.355469 C 104.164062 42.25 104.164062 42.132812 104.164062 42.023438 L 104.164062 41.011719 L 104.105469 40.335938 L 104.105469 39.644531 L 104.011719 38.992188 L 103.867188 38.304688 L 103.796875 37.957031 L 103.714844 37.613281 C 103.65625 37.386719 103.59375 37.148438 103.535156 36.925781 C 103.394531 36.472656 103.261719 36.007812 103.085938 35.558594 C 102.90625 35.105469 102.726562 34.652344 102.539062 34.203125 C 101.714844 32.375 100.644531 30.707031 99.328125 29.195312 C 98.65625 28.433594 97.933594 27.71875 97.164062 27.058594 C 96.382812 26.394531 95.558594 25.792969 94.691406 25.25 C 92.933594 24.164062 91.050781 23.375 89.042969 22.871094 C 88.0625 22.621094 87.070312 22.445312 86.058594 22.347656 L 85.300781 22.289062 L 83.066406 22.289062 C 81.117188 22.382812 79.207031 22.699219 77.335938 23.242188 L 76.988281 23.335938 L 76.65625 23.441406 L 75.992188 23.667969 L 75.660156 23.789062 L 75.324219 23.917969 L 75.003906 24.050781 L 74.683594 24.179688 C 72.21875 25.230469 69.988281 26.648438 67.992188 28.4375 C 66.796875 29.515625 65.722656 30.703125 64.769531 32.003906 C 63.914062 33.148438 63.175781 34.367188 62.546875 35.652344 C 62.011719 36.730469 61.558594 37.84375 61.191406 38.992188 C 60.882812 40.011719 60.644531 41.046875 60.476562 42.09375 C 60.417969 42.5 60.476562 44.03125 60.132812 44.210938 C 60.054688 43.921875 59.992188 43.628906 59.941406 43.332031 C 59.226562 40.21875 58 37.324219 56.253906 34.652344 C 54.507812 31.976562 52.351562 29.6875 49.789062 27.78125 C 47.070312 25.789062 44.101562 24.285156 40.886719 23.265625 C 37.671875 22.25 34.378906 21.773438 31.007812 21.839844 C 34.972656 22.917969 38.675781 24.574219 42.128906 26.808594 C 45.578125 29.039062 48.605469 31.742188 51.214844 34.914062 C 52.066406 35.972656 52.859375 37.070312 53.59375 38.207031 C 56.429688 42.53125 58.351562 47.226562 59.359375 52.296875 C 59.785156 53.925781 59.996094 55.582031 59.988281 57.265625 C 60.617188 54.558594 60.785156 51.824219 60.488281 49.0625 C 60.230469 47.433594 60.203125 45.800781 60.40625 44.164062 C 60.703125 42.46875 61.175781 40.824219 61.832031 39.230469 C 62.289062 38.136719 62.824219 37.082031 63.4375 36.066406 C 64.929688 33.605469 66.824219 31.503906 69.121094 29.765625 C 71.074219 28.289062 73.207031 27.15625 75.527344 26.367188 L 75.824219 26.273438 L 76.121094 26.175781 L 76.417969 26.082031 L 76.726562 26 L 77.347656 25.84375 L 77.65625 25.761719 L 77.964844 25.703125 C 79.65625 25.347656 81.363281 25.1875 83.089844 25.226562 L 84.382812 25.226562 L 85.027344 25.285156 L 85.65625 25.382812 C 86.5 25.515625 87.328125 25.710938 88.140625 25.976562 C 89.777344 26.515625 91.292969 27.289062 92.695312 28.292969 C 93.375 28.777344 94.023438 29.304688 94.632812 29.875 C 95.226562 30.445312 95.78125 31.050781 96.296875 31.695312 C 97.28125 32.957031 98.074219 34.332031 98.671875 35.820312 C 98.816406 36.1875 98.957031 36.542969 99.066406 36.914062 C 99.171875 37.28125 99.292969 37.648438 99.386719 38.007812 C 99.386719 38.183594 99.46875 38.375 99.519531 38.554688 L 99.578125 38.828125 C 99.578125 38.921875 99.578125 39.003906 99.578125 39.097656 L 99.671875 39.644531 L 99.742188 40.191406 L 99.742188 42.082031 C 99.742188 42.167969 99.742188 42.261719 99.742188 42.34375 L 99.742188 42.867188 C 99.742188 42.953125 99.742188 43.035156 99.742188 43.117188 L 99.742188 44.117188 C 99.742188 44.199219 99.742188 44.28125 99.742188 44.355469 L 99.660156 44.839844 C 99.660156 45.007812 99.589844 45.164062 99.554688 45.328125 C 99.519531 45.496094 99.46875 45.648438 99.433594 45.816406 C 99.398438 45.984375 99.351562 46.136719 99.292969 46.304688 L 99.207031 46.542969 C 99.207031 46.625 99.207031 46.707031 99.125 46.777344 L 98.945312 47.265625 L 98.746094 47.742188 L 98.746094 47.980469 L 98.625 48.21875 C 97.972656 49.554688 97.117188 50.742188 96.058594 51.785156 C 94.941406 52.875 93.667969 53.738281 92.242188 54.375 C 90.757812 55.039062 89.207031 55.414062 87.582031 55.492188 L 85.203125 55.492188 C 83.589844 55.226562 82.121094 54.601562 80.804688 53.625 L 80.496094 53.257812 L 80.257812 53.066406 L 80.035156 52.867188 L 79.914062 52.769531 L 79.808594 52.664062 L 79.582031 52.449219 L 79.425781 52.285156 L 79.164062 52.070312 L 78.964844 51.84375 C 77.902344 50.589844 77.171875 49.167969 76.777344 47.574219 C 76.585938 46.792969 76.480469 46.003906 76.46875 45.199219 C 76.46875 44.996094 76.46875 44.804688 76.46875 44.617188 C 76.46875 44.425781 76.46875 44.425781 76.46875 44.332031 L 76.46875 44.1875 C 76.46875 44.1875 76.46875 44.09375 76.46875 44.046875 L 76.46875 43.1875 L 76.527344 42.914062 C 76.953125 41.390625 77.742188 40.082031 78.890625 38.992188 C 79.414062 38.492188 79.988281 38.058594 80.617188 37.695312 C 81.210938 37.335938 81.84375 37.046875 82.507812 36.828125 C 83.144531 36.625 83.800781 36.492188 84.46875 36.4375 C 85.09375 36.359375 85.71875 36.359375 86.347656 36.4375 C 87.480469 36.644531 88.507812 37.101562 89.425781 37.804688 C 90.1875 38.375 90.816406 39.070312 91.316406 39.882812 C 91.949219 40.921875 92.3125 42.046875 92.398438 43.261719 C 92.398438 43.34375 92.398438 43.414062 92.398438 43.472656 C 92.398438 43.414062 92.398438 43.34375 92.398438 43.261719 L 92.398438 42.988281 C 92.398438 42.890625 92.398438 42.785156 92.398438 42.664062 C 92.382812 42.394531 92.355469 42.125 92.3125 41.859375 C 92.1875 41.105469 91.960938 40.390625 91.625 39.707031 C 91.164062 38.796875 90.546875 38.003906 89.78125 37.328125 C 89.324219 36.929688 88.828125 36.582031 88.296875 36.292969 C 87.75 35.957031 87.171875 35.691406 86.558594 35.496094 C 85.859375 35.324219 85.152344 35.242188 84.433594 35.246094 C 83.664062 35.246094 82.910156 35.328125 82.160156 35.496094 C 81.300781 35.695312 80.476562 36 79.695312 36.410156 C 78.914062 36.820312 78.191406 37.320312 77.539062 37.914062 C 76.882812 38.507812 76.3125 39.171875 75.828125 39.910156 C 75.339844 40.648438 74.957031 41.4375 74.671875 42.273438 L 74.566406 42.617188 L 74.566406 42.976562 L 74.46875 43.332031 L 74.398438 43.6875 L 74.398438 44.046875 C 74.398438 44.164062 74.398438 44.28125 74.398438 44.414062 C 74.398438 44.542969 74.398438 44.914062 74.339844 45.152344 C 74.28125 46.140625 74.332031 47.121094 74.492188 48.097656 C 74.660156 49.101562 74.941406 50.074219 75.335938 51.011719 C 75.738281 51.96875 76.246094 52.863281 76.859375 53.699219 L 77.097656 54.007812 L 77.347656 54.316406 L 77.597656 54.613281 L 77.859375 54.898438 L 77.988281 55.042969 L 78.132812 55.183594 L 78.417969 55.457031 L 79.011719 55.980469 C 80.671875 57.390625 82.566406 58.339844 84.691406 58.820312 L 85.085938 58.90625 L 85.476562 58.976562 L 86.285156 58.976562 C 86.820312 58.976562 87.34375 59.058594 87.867188 59.058594 C 89.871094 59.066406 91.816406 58.71875 93.691406 58.011719 C 95.570312 57.277344 97.257812 56.234375 98.757812 54.886719 C 100.257812 53.535156 101.472656 51.96875 102.40625 50.179688 L 102.574219 49.859375 L 102.65625 49.703125 L 102.726562 49.539062 L 103.011719 48.894531 L 103.261719 48.242188 C 103.261719 48.132812 103.34375 48.027344 103.382812 47.921875 L 103.488281 47.597656 C 103.558594 47.386719 103.617188 47.160156 103.679688 46.945312 C 103.738281 46.730469 103.796875 46.503906 103.84375 46.292969 C 103.890625 46.078125 103.941406 45.851562 103.988281 45.636719 L 104.09375 44.984375 C 104.140625 44.9375 104.152344 44.792969 104.164062 44.6875 Z M 104.164062 44.6875 " fill-opacity="1" fill-rule="nonzero"/><path fill="#baa291" d="M 110.632812 29.625 C 111.726562 25.679688 113.664062 22.777344 115.910156 21.863281 C 115.6875 21.425781 115.355469 21.097656 114.917969 20.878906 C 114.476562 20.660156 114.015625 20.589844 113.535156 20.671875 C 113.445312 20.410156 113.339844 20.152344 113.222656 19.902344 C 113.054688 19.40625 112.78125 18.980469 112.402344 18.621094 C 112.019531 18.261719 111.578125 18.015625 111.074219 17.878906 L 110.714844 17.878906 C 110.207031 17.996094 109.753906 18.222656 109.359375 18.5625 C 108.960938 18.90625 108.671875 19.320312 108.480469 19.804688 C 108.351562 20.050781 108.238281 20.304688 108.136719 20.566406 C 107.652344 20.460938 107.1875 20.511719 106.734375 20.714844 C 106.285156 20.921875 105.941406 21.238281 105.699219 21.671875 C 107.957031 22.660156 109.707031 25.640625 110.632812 29.625 Z M 110.632812 29.625 " fill-opacity="1" fill-rule="nonzero"/><path fill="#baa291" d="M 156.699219 20.125 L 157.292969 19.886719 L 157.636719 19.757812 L 158.019531 19.640625 L 158.421875 19.507812 L 158.863281 19.507812 L 159.324219 19.402344 L 159.824219 19.316406 L 160.335938 19.234375 L 160.871094 19.234375 C 162.46875 19.089844 164.054688 19.167969 165.625 19.472656 C 167.15625 19.785156 168.65625 20.214844 170.121094 20.757812 C 171.628906 21.289062 173.097656 21.925781 174.519531 22.660156 L 174.613281 22.660156 C 176.300781 23.5625 177.886719 24.621094 179.371094 25.832031 L 179.917969 26.285156 L 180.4375 26.734375 L 180.9375 27.1875 L 181.414062 27.640625 L 181.640625 27.855469 L 181.855469 28.066406 L 182.269531 28.496094 L 182.664062 28.886719 L 183.007812 29.269531 L 183.601562 29.933594 L 184.042969 30.457031 L 184.421875 30.898438 L 184.316406 30.328125 L 184.183594 29.660156 C 184.183594 29.398438 184.101562 29.101562 184.042969 28.769531 L 183.957031 28.257812 L 183.886719 27.699219 L 183.816406 27.105469 C 183.816406 26.996094 183.816406 26.902344 183.816406 26.796875 L 183.816406 25.820312 C 183.816406 25.59375 183.816406 25.367188 183.816406 25.144531 C 183.816406 24.917969 183.816406 24.679688 183.816406 24.441406 C 183.816406 24.203125 183.816406 23.964844 183.816406 23.726562 C 183.796875 21.800781 183.957031 19.886719 184.304688 17.988281 L 184.304688 17.808594 C 184.597656 16.25 184.996094 14.714844 185.492188 13.207031 C 185.980469 11.707031 186.578125 10.253906 187.285156 8.84375 C 187.996094 7.375 188.894531 6.03125 189.984375 4.816406 L 190.367188 4.421875 L 190.746094 4.066406 L 191.125 3.722656 L 191.507812 3.421875 L 191.683594 3.28125 L 191.863281 3.136719 L 192.21875 2.890625 L 192.554688 2.664062 L 192.875 2.472656 L 193.421875 2.152344 L 193.847656 1.9375 L 194.21875 1.746094 L 192.21875 1.746094 L 191.804688 1.820312 L 191.351562 1.890625 L 190.875 1.890625 L 190.378906 2.007812 L 189.867188 2.175781 L 189.34375 2.355469 L 188.820312 2.578125 C 187.246094 3.289062 185.890625 4.289062 184.753906 5.585938 C 183.574219 6.953125 182.695312 8.492188 182.117188 10.199219 L 182.117188 10.355469 C 181.5625 11.589844 181.167969 12.875 180.925781 14.207031 C 180.746094 15.902344 180.554688 17.59375 180.355469 19.28125 C 180.214844 20.472656 180.011719 20.851562 178.941406 20.257812 C 177.085938 19.222656 175.292969 17.878906 173.402344 17.058594 C 171.660156 16.351562 169.863281 15.828125 168.015625 15.488281 C 167.027344 15.316406 166.035156 15.257812 165.03125 15.3125 C 163.316406 15.410156 161.699219 15.863281 160.183594 16.667969 L 159.683594 16.941406 L 159.21875 17.238281 L 158.78125 17.535156 L 158.375 17.855469 L 158.183594 18.011719 L 158.007812 18.164062 L 157.671875 18.472656 L 157.363281 18.757812 L 157.089844 19.042969 C 156.925781 19.234375 156.769531 19.390625 156.640625 19.542969 L 156.320312 19.949219 L 156.058594 20.292969 L 156.425781 20.125 Z M 156.699219 20.125 " fill-opacity="1" fill-rule="nonzero"/><g clip-path="url(#f6ee6778c9)"><path fill="#baa291" d="M 595.367188 26.214844 C 440.632812 26.34375 278.707031 26.355469 263.871094 25.84375 C 261.992188 25.78125 260.117188 25.691406 258.246094 25.570312 C 253.039062 25.25 247.878906 24.523438 242.707031 23.917969 C 239.652344 23.5625 236.183594 23.847656 233.566406 21.945312 C 231.699219 20.589844 232.019531 17.761719 231.1875 15.824219 C 230.40625 14.050781 229.441406 12.382812 228.300781 10.816406 C 225.953125 7.566406 222.988281 5.039062 219.40625 3.234375 C 217.84375 2.453125 216.207031 1.871094 214.503906 1.484375 C 212.800781 1.101562 211.074219 0.925781 209.324219 0.953125 C 207.578125 0.984375 205.859375 1.222656 204.167969 1.667969 C 202.476562 2.117188 200.863281 2.753906 199.328125 3.589844 C 198.574219 4.023438 197.855469 4.507812 197.167969 5.042969 C 196.480469 5.578125 195.832031 6.15625 195.226562 6.78125 C 194.617188 7.40625 194.058594 8.070312 193.542969 8.769531 C 193.027344 9.472656 192.5625 10.207031 192.152344 10.972656 C 191.738281 11.738281 191.382812 12.53125 191.078125 13.347656 C 190.773438 14.164062 190.53125 14.996094 190.34375 15.847656 C 190.15625 16.699219 190.027344 17.554688 189.960938 18.425781 C 189.890625 19.292969 189.886719 20.160156 189.9375 21.03125 C 190.03125 22.21875 190.257812 23.378906 190.617188 24.515625 C 190.972656 25.652344 191.453125 26.738281 192.054688 27.765625 C 192.652344 28.792969 193.363281 29.742188 194.175781 30.613281 C 194.992188 31.484375 195.894531 32.25 196.878906 32.917969 C 197.878906 33.5625 198.945312 34.066406 200.078125 34.429688 C 201.210938 34.792969 202.371094 35.003906 203.558594 35.0625 C 204.746094 35.117188 205.917969 35.019531 207.082031 34.769531 C 208.242188 34.515625 209.351562 34.117188 210.410156 33.570312 C 211.445312 32.996094 212.371094 32.277344 213.191406 31.421875 C 214.011719 30.5625 214.683594 29.605469 215.214844 28.542969 C 215.746094 27.484375 216.105469 26.371094 216.300781 25.199219 C 216.496094 24.03125 216.511719 22.859375 216.351562 21.683594 C 216.414062 22.292969 216.425781 22.90625 216.386719 23.519531 C 216.351562 24.128906 216.265625 24.734375 216.128906 25.332031 C 215.992188 25.929688 215.808594 26.515625 215.578125 27.082031 C 215.34375 27.652344 215.070312 28.195312 214.75 28.71875 C 214.429688 29.242188 214.070312 29.738281 213.671875 30.203125 C 213.269531 30.667969 212.835938 31.097656 212.363281 31.492188 C 211.894531 31.886719 211.394531 32.238281 210.867188 32.550781 C 210.339844 32.867188 209.792969 33.132812 209.21875 33.359375 C 208.058594 33.765625 206.863281 34.003906 205.632812 34.066406 C 204.402344 34.132812 203.1875 34.019531 201.992188 33.734375 C 200.792969 33.445312 199.660156 32.996094 198.59375 32.382812 C 197.523438 31.769531 196.566406 31.015625 195.714844 30.125 C 194.878906 29.207031 194.167969 28.203125 193.582031 27.105469 C 193 26.011719 192.5625 24.859375 192.269531 23.652344 C 191.976562 22.445312 191.835938 21.222656 191.851562 19.980469 C 191.871094 18.742188 192.039062 17.519531 192.363281 16.320312 C 194.457031 8.367188 203.253906 3.078125 211.382812 4.21875 C 219.515625 5.363281 226.292969 12.304688 228.027344 20.339844 C 229.761719 28.375 226.695312 37.078125 220.894531 42.925781 C 219.164062 44.710938 217.207031 46.199219 215.023438 47.386719 C 212.839844 48.574219 210.527344 49.410156 208.089844 49.894531 C 199.769531 51.390625 191.449219 47.910156 184.316406 43.535156 C 177.480469 39.359375 171.238281 34.320312 164.378906 30.160156 C 157.519531 26 149.898438 22.707031 141.898438 22.550781 C 131.507812 22.347656 121.582031 27.53125 113.996094 34.628906 C 121.664062 28.175781 131.402344 23.5625 141.410156 24.109375 C 149.257812 24.535156 156.617188 28.066406 163.164062 32.429688 C 169.714844 36.792969 175.648438 41.941406 182.1875 46.328125 C 188.5 50.535156 195.609375 54.007812 203.191406 54.328125 L 204.191406 54.328125 C 206.480469 54.316406 208.734375 54.027344 210.953125 53.460938 C 213.171875 52.894531 215.289062 52.066406 217.304688 50.976562 C 219.316406 49.890625 221.167969 48.574219 222.859375 47.027344 C 224.550781 45.480469 226.027344 43.753906 227.289062 41.847656 C 228.726562 39.621094 229.859375 37.160156 231.664062 35.222656 C 235.003906 31.65625 241.996094 31.929688 246.511719 31.324219 C 252.253906 30.550781 258.019531 29.96875 263.808594 29.765625 C 278.644531 29.246094 440.621094 29.257812 595.378906 29.398438 Z M 595.367188 26.214844 " fill-opacity="1" fill-rule="nonzero"/></g><path fill="#baa291" d="M 210.445312 20.589844 C 210.445312 20.972656 210.40625 21.351562 210.332031 21.722656 C 210.257812 22.097656 210.148438 22.460938 210.003906 22.816406 C 209.855469 23.167969 209.675781 23.503906 209.464844 23.820312 C 209.253906 24.136719 209.011719 24.429688 208.742188 24.699219 C 208.472656 24.96875 208.179688 25.210938 207.859375 25.421875 C 207.542969 25.636719 207.207031 25.816406 206.855469 25.960938 C 206.503906 26.105469 206.140625 26.21875 205.765625 26.292969 C 205.390625 26.367188 205.011719 26.402344 204.632812 26.402344 C 204.25 26.402344 203.871094 26.367188 203.496094 26.292969 C 203.121094 26.21875 202.757812 26.105469 202.40625 25.960938 C 202.054688 25.816406 201.71875 25.636719 201.402344 25.421875 C 201.085938 25.210938 200.789062 24.96875 200.519531 24.699219 C 200.25 24.429688 200.011719 24.136719 199.796875 23.820312 C 199.585938 23.503906 199.40625 23.167969 199.261719 22.816406 C 199.113281 22.460938 199.003906 22.097656 198.929688 21.722656 C 198.855469 21.351562 198.816406 20.972656 198.816406 20.589844 C 198.816406 20.207031 198.855469 19.832031 198.929688 19.457031 C 199.003906 19.082031 199.113281 18.71875 199.261719 18.367188 C 199.40625 18.011719 199.585938 17.675781 199.796875 17.359375 C 200.011719 17.042969 200.25 16.75 200.519531 16.480469 C 200.789062 16.210938 201.085938 15.96875 201.402344 15.757812 C 201.71875 15.542969 202.054688 15.367188 202.40625 15.21875 C 202.757812 15.074219 203.121094 14.964844 203.496094 14.886719 C 203.871094 14.8125 204.25 14.777344 204.632812 14.777344 C 205.011719 14.777344 205.390625 14.8125 205.765625 14.886719 C 206.140625 14.964844 206.503906 15.074219 206.855469 15.21875 C 207.207031 15.367188 207.542969 15.542969 207.859375 15.757812 C 208.179688 15.96875 208.472656 16.210938 208.742188 16.480469 C 209.011719 16.75 209.253906 17.042969 209.464844 17.359375 C 209.675781 17.675781 209.855469 18.011719 210.003906 18.367188 C 210.148438 18.71875 210.257812 19.082031 210.332031 19.457031 C 210.40625 19.832031 210.445312 20.207031 210.445312 20.589844 Z M 210.445312 20.589844 " fill-opacity="1" fill-rule="nonzero"/><path fill="#baa291" d="M 51.660156 44.53125 C 51.894531 44.765625 52.105469 45.019531 52.289062 45.292969 C 52.472656 45.566406 52.625 45.859375 52.753906 46.164062 C 52.878906 46.46875 52.972656 46.78125 53.039062 47.105469 C 53.101562 47.429688 53.132812 47.757812 53.132812 48.085938 C 53.132812 48.417969 53.101562 48.746094 53.039062 49.066406 C 52.972656 49.390625 52.878906 49.707031 52.753906 50.011719 C 52.625 50.316406 52.472656 50.605469 52.289062 50.882812 C 52.105469 51.15625 51.894531 51.410156 51.660156 51.644531 C 51.429688 51.875 51.175781 52.085938 50.898438 52.269531 C 50.625 52.453125 50.335938 52.605469 50.03125 52.734375 C 49.726562 52.859375 49.410156 52.953125 49.085938 53.019531 C 48.761719 53.082031 48.4375 53.117188 48.105469 53.117188 C 47.777344 53.117188 47.449219 53.082031 47.125 53.019531 C 46.800781 52.953125 46.488281 52.859375 46.183594 52.734375 C 45.875 52.605469 45.585938 52.453125 45.3125 52.269531 C 45.039062 52.085938 44.785156 51.875 44.550781 51.644531 C 44.316406 51.410156 44.109375 51.15625 43.925781 50.882812 C 43.742188 50.605469 43.585938 50.316406 43.460938 50.011719 C 43.332031 49.707031 43.238281 49.390625 43.175781 49.066406 C 43.109375 48.746094 43.078125 48.417969 43.078125 48.085938 C 43.078125 47.757812 43.109375 47.429688 43.175781 47.105469 C 43.238281 46.78125 43.332031 46.46875 43.460938 46.164062 C 43.585938 45.859375 43.742188 45.566406 43.925781 45.292969 C 44.109375 45.019531 44.316406 44.765625 44.550781 44.53125 C 44.785156 44.296875 45.039062 44.089844 45.3125 43.90625 C 45.585938 43.722656 45.875 43.566406 46.183594 43.441406 C 46.488281 43.316406 46.800781 43.21875 47.125 43.15625 C 47.449219 43.089844 47.777344 43.058594 48.105469 43.058594 C 48.4375 43.058594 48.761719 43.089844 49.085938 43.15625 C 49.410156 43.21875 49.726562 43.316406 50.03125 43.441406 C 50.335938 43.566406 50.625 43.722656 50.898438 43.90625 C 51.175781 44.089844 51.429688 44.296875 51.660156 44.53125 Z M 51.660156 44.53125 " fill-opacity="1" fill-rule="nonzero"/></svg>